<svg version="1.2" xmlns="http://www.w3.org/2000/svg" viewBox="0 0 87 67" width="87" height="67">
	<defs>
		<clipPath clipPathUnits="userSpaceOnUse" id="cp1">
			<path d="m-296-197h665.33v499h-665.33z"/>
		</clipPath>
	</defs>
	<style>
		.s0 { opacity: .5;fill: none;stroke: #00adb5;stroke-linecap: round;stroke-linejoin: round;stroke-width: 1.7 } 
		.s1 { opacity: .5;fill: #00adb5;stroke: #00adb5;stroke-width: 1.7 } 
	</style>
	<g id="Clip-Path" clip-path="url(#cp1)">
		<g>
			<path class="s0" d="m-265.74-139.58c3.7-8.73 2.18-16.34 2.18-25.39 0-1.76-0.32-7.13 1.53-8.09 2.92-1.51 5.65-2.52 9.09-2.52 2.29 0 4.59 0.07 6.88 0 2.29-0.07 4.5-1 6.77-1.27 4.21-0.52 8.59 0.2 12.74 0.2 3.3 0 6.72 0.43 9.89 0.43 0.57 0 2.86 0.27 3.23 0.59 1.14 1 0.81 2.6 1.71 3.48"/>
			<path class="s0" d="m-211.94-171.38c0.14 2.58 0.2 6.2 1.26 8.72 0.68 1.63 0.14 3.8 0.27 5.54 0.27 3.33-0.23 6.59-0.23 9.82 0 4.35 0.22 8.63 0.22 12.95 0 3.71-3.62 3.09-6.48 2.57-2.48-0.45-5.8 0.45-8.38 0.48-4.97 0.06-9.97 0.44-14.95 0.44-4.17 0-7.26-1.21-11.09-2.66-2.05-0.78-3.28-0.61-5.48-0.61-2.08 0-3.79-0.33-5.88 0.33-1.22 0.38-3.41 0.05-4.1-1.2-0.84-1.5 0.82-2.15 0.82-3.38 0-1.03-0.13-3.97 0.22-1.2"/>
			<path class="s0" d="m-240.91-165.71c0 0 0.87 0.43 1.74 1.3 0.87 0.66 2.71 0.33 4.25 0.33 0.81 0 1.67-0.63 2.39-0.96 1.48-0.65 0.6 0.58 0.25 1.29-0.39 0.78 0.05 2.23 0.76 2.72 1.16 0.81 2.32 0.11 3.46-0.46 0.47-0.24 0.34-0.35 0.49-0.02 0.2 0.43 0.16 1.07 0.16 1.54 0 1.09-0.07 2.89-0.65 3.84-0.77 1.25-1.54 2.05-2.77 2.97-1.22 0.9-2.83 2.48-4.44 2.48-3.16 0-6.52-0.69-8.1-3.77-0.67-1.3-1.9-2.37-1.9-3.86 0-1.24-0.41-2.73 0-3.92 0.5-1.44 1.74-2.81 1.31-2.81 0.22 0.07 2.18-1.11 3.05-0.67z"/>
			<path class="s0" d="m-237.32-166.48c1.23-0.45 4.03-1.4 4.69-2.88 0.5-1.15-1.18-1.36-2.07-1.36-1.09 0-2.38 1.5-2.67 2.45q-0.23 0.79-0.47 1.6c-0.07 0.26 0.03 0.45 0.08 0.68 0.04 0.19 1.7-0.69 1.64-0.94"/>
			<path class="s1" d="m-215.75-141.97l-47.78 1.05c-5.11 0.11-9.18 4.28-9.18 9.39 0 5.18 4.2 9.38 9.38 9.38h47.79c5.48 0 9.91-4.44 9.91-9.91 0-5.56-4.57-10.03-10.12-9.91z"/>
			<path class="s0" d="m-252.97-141.18c0.72 1.12 1.35 2.47 2.18 3.5 0.41 0.53 0.35 0.42 1.16 0.12 1.35-0.5 2.88-0.14 4.29-0.14 1.24 0 2.67-0.65 3.88-0.32 1.39 0.37 3.03-0.34 4.4-0.38 1.66-0.04 3.23 0.12 4.88 0.12 0.99 0 1.95-0.58 2.87-0.58 0.53 0 2.05 0.42 2.09-0.55 0.02-0.48 0.23-0.94 0.23-1.42 0-0.65-0.39-0.37-1.04-0.7"/>
			<path class="s0" d="m-272.4 106.6c3.71-8.74 2.19-16.35 2.19-25.4 0-1.76-0.32-7.12 1.53-8.08 2.92-1.52 5.65-2.53 9.09-2.53 2.29 0 4.59 0.07 6.88 0 2.28-0.06 4.5-0.99 6.76-1.27 4.21-0.52 8.59 0.2 12.75 0.2 3.3 0 6.71 0.43 9.89 0.43 0.56 0 2.86 0.27 3.23 0.6 1.13 1 0.81 2.6 1.7 3.47"/>
			<path class="s0" d="m-218.6 74.8c0.15 2.57 0.2 6.19 1.26 8.71 0.69 1.63 0.14 3.8 0.28 5.54 0.27 3.34-0.23 6.59-0.23 9.83 0 4.34 0.22 8.63 0.22 12.95 0 3.7-3.62 3.08-6.49 2.56-2.47-0.45-5.79 0.45-8.37 0.49-4.98 0.06-9.97 0.43-14.96 0.43-4.16 0-7.25-1.21-11.08-2.66-2.05-0.78-3.29-0.61-5.48-0.61-2.09 0-3.8-0.32-5.89 0.33-1.22 0.38-3.4 0.05-4.1-1.2-0.83-1.5 0.83-2.15 0.83-3.37 0-1.03-0.13-3.98 0.21-1.2"/>
			<path class="s0" d="m-247.57 80.46c0 0 0.88 0.43 1.75 1.31 0.87 0.65 2.7 0.32 4.24 0.32 0.82 0 1.67-0.63 2.4-0.95 1.47-0.66 0.6 0.57 0.24 1.28-0.39 0.78 0.06 2.23 0.77 2.72 1.16 0.81 2.32 0.11 3.46-0.46 0.47-0.23 0.34-0.34 0.49-0.02 0.19 0.44 0.16 1.07 0.16 1.55 0 1.08-0.07 2.89-0.65 3.83-0.77 1.25-1.54 2.05-2.78 2.97-1.21 0.9-2.82 2.48-4.44 2.48-3.16 0-6.51-0.69-8.09-3.76-0.67-1.31-1.9-2.37-1.9-3.86 0-1.25-0.41-2.74 0-3.93 0.5-1.43 1.74-2.8 1.31-2.8 0.22 0.06 2.17-1.12 3.04-0.68z"/>
			<path class="s0" d="m-243.97 79.7c1.22-0.46 4.02-1.41 4.68-2.89 0.51-1.14-1.17-1.36-2.07-1.36-1.08 0-2.37 1.5-2.66 2.45q-0.24 0.8-0.47 1.6c-0.08 0.26 0.02 0.45 0.08 0.69 0.04 0.18 1.7-0.69 1.64-0.94"/>
			<path class="s1" d="m-222.41 104.21l-47.78 1.05c-5.1 0.11-9.18 4.28-9.18 9.38 0 5.18 4.2 9.38 9.39 9.38h47.79c5.47 0 9.91-4.43 9.91-9.91 0-5.55-4.57-10.03-10.13-9.9z"/>
			<path class="s0" d="m-259.62 104.99c0.72 1.13 1.34 2.47 2.17 3.51 0.42 0.52 0.35 0.41 1.16 0.11 1.35-0.5 2.89-0.14 4.29-0.14 1.24 0 2.68-0.64 3.88-0.32 1.4 0.37 3.04-0.34 4.41-0.37 1.65-0.04 3.23 0.11 4.87 0.11 0.99 0 1.96-0.58 2.88-0.58 0.53 0 2.05 0.42 2.08-0.55 0.02-0.48 0.24-0.94 0.24-1.42 0-0.65-0.39-0.37-1.05-0.7"/>
			<path class="s0" d="m269.85-33.12c3.7-8.74 2.19-16.35 2.19-25.4 0-1.76-0.32-7.12 1.53-8.08 2.92-1.52 5.64-2.53 9.09-2.53 2.29 0 4.58 0.07 6.87 0 2.29-0.06 4.51-0.99 6.77-1.27 4.21-0.52 8.59 0.2 12.75 0.2 3.3 0 6.71 0.43 9.89 0.43 0.56 0 2.86 0.27 3.23 0.6 1.13 0.99 0.81 2.6 1.7 3.47"/>
			<path class="s0" d="m323.65-64.92c0.14 2.57 0.2 6.19 1.26 8.71 0.69 1.63 0.14 3.8 0.28 5.54 0.27 3.34-0.23 6.59-0.23 9.83 0 4.34 0.22 8.63 0.22 12.95 0 3.7-3.63 3.08-6.49 2.56-2.47-0.45-5.79 0.45-8.37 0.49-4.98 0.06-9.98 0.43-14.96 0.43-4.16 0-7.25-1.21-11.09-2.66-2.04-0.78-3.28-0.61-5.48-0.61-2.08 0-3.79-0.32-5.88 0.33-1.22 0.38-3.41 0.05-4.1-1.2-0.83-1.5 0.82-2.15 0.82-3.37 0-1.03-0.13-3.98 0.22-1.2"/>
			<path class="s0" d="m294.68-59.26c0 0 0.87 0.44 1.74 1.31 0.87 0.65 2.71 0.32 4.25 0.32 0.81 0 1.67-0.63 2.4-0.95 1.47-0.66 0.59 0.58 0.24 1.28-0.39 0.78 0.06 2.23 0.76 2.72 1.17 0.81 2.32 0.11 3.46-0.46 0.48-0.23 0.35-0.34 0.49-0.02 0.2 0.44 0.17 1.07 0.17 1.55 0 1.08-0.07 2.89-0.66 3.83-0.76 1.25-1.54 2.05-2.77 2.97-1.22 0.9-2.82 2.48-4.44 2.48-3.16 0-6.51-0.69-8.09-3.76-0.68-1.31-1.9-2.38-1.9-3.86 0-1.25-0.42-2.74 0-3.93 0.49-1.44 1.74-2.8 1.3-2.8 0.22 0.06 2.18-1.12 3.05-0.68z"/>
			<path class="s0" d="m298.27-60.02c1.23-0.46 4.03-1.41 4.69-2.89 0.51-1.14-1.18-1.36-2.07-1.36-1.09 0-2.37 1.5-2.66 2.45q-0.24 0.8-0.47 1.6c-0.08 0.26 0.02 0.45 0.07 0.69 0.04 0.18 1.71-0.69 1.64-0.94"/>
			<path class="s1" d="m319.84-35.51l-47.78 1.05c-5.1 0.11-9.18 4.28-9.18 9.38 0 5.18 4.2 9.38 9.39 9.38h47.79c5.47 0 9.91-4.43 9.91-9.91 0-5.55-4.57-10.02-10.13-9.9z"/>
			<path class="s0" d="m282.62-34.73c0.73 1.13 1.35 2.47 2.18 3.51 0.42 0.52 0.35 0.41 1.16 0.11 1.35-0.5 2.88-0.14 4.29-0.14 1.24 0 2.68-0.64 3.88-0.32 1.39 0.38 3.04-0.34 4.41-0.37 1.65-0.04 3.23 0.11 4.87 0.11 0.99 0 1.96-0.58 2.87-0.58 0.54 0 2.05 0.42 2.09-0.55 0.02-0.48 0.23-0.94 0.23-1.42 0-0.65-0.38-0.37-1.04-0.69"/>
			<path class="s0" d="m-149.26-149.28c0.38 1.95 1.34 3.22 2.09 5 0.51 1.22 1.47 2.16 2 3.35 0.57 1.28 1.43 2.79 2.23 3.93 0.69 0.98 1.14 1.91 2.01 2.78 1.53 1.53 2.68 3.35 4.22 4.86 2.23 2.19 6.02 5.05 9.27 4.87 1.05-0.06 2.21 0.27 3.23 0.11 0.88-0.13 1.95-0.18 2.83-0.02 1.45 0.25 3.02-0.01 4.41 0.29 0.75 0.17 1.56-0.07 2.32 0.07 0.98 0.18 2.13 0.23 3.13 0.23 3.28 0 6.54-0.02 9.81-0.44 1.77-0.22 3.52 0.36 5.28 0.05 1.64-0.29 3.83 0.01 5.38-0.66 1.9-0.84 3.79-2.14 5.26-3.61 0.74-0.74 1.3-1.62 1.79-2.53 0.66-1.2 1.02-2.49 1.68-3.68 2.3-4.16 3.61-8.79 5.47-13.13 0.43-1.02 1.15-1.85 1.68-2.79 0.13-0.24 0.19-0.55 0.41-0.78 0.81-0.85-0.75-0.94-1.46-1.27"/>
			<path class="s0" d="m-149.63-149.1c1.63-2.13 3.01-3.69 5.37-4.89 1.98-1.01 4.03-2.21 5.82-3.52 2.74-2.02 6.52-2.92 9.87-3.53 3.64-0.66 7.22-1.43 10.92-1.43 1.15 0 2.28 0.34 3.43 0.36q2.06 0.02 4.11 0.18c2.1 0.18 4.25 0.14 6.35 0.18 2.93 0.07 5.73 1.58 8.66 1.82 1.74 0.14 3.78 0.4 5.47 0.87 0.63 0.18 1.36 0.3 1.95 0.59 0.74 0.36 1.25 0.96 1.93 1.38 2.19 1.36 4.63 2 6.99 3.04 0.72 0.31 1.97 0.86 2.77 0.86 1.1 0 1.05 2.03 1.05 0"/>
			<path class="s0" d="m-75.13-151.92c-1.35 1.81-2.31 2.5-4.22 3.55-1.5 0.83-3.17 1.42-4.85 1.72-1.58 0.29-3.29 0.52-4.89 0.65-1.32 0.1-2.67-0.05-4.03 0.1-3.06 0.35-6.15 1.14-9.1 2-4.22 1.24-8.29 1.36-12.65 1.6-4.75 0.26-9.52-0.1-14.18-1.07-1.57-0.33-3.23-0.03-4.83-0.1-1.76-0.07-3.49-0.55-5.14-1.12-0.7-0.24-1.35-0.62-2.08-0.78-0.85-0.2-1.72-0.12-2.57-0.33-1.19-0.28-2.57-0.8-3.57-1.49-0.44-0.3-1.09-0.55-1.43-1.01-0.1-0.13-0.23-0.43-0.23-0.58 0-0.38-0.31-0.28 0.18 0.04"/>
			<path class="s0" d="m-114.24-133.46c1.11-0.12 2.57-0.1 2.11-1.52-0.15-0.46-0.52-0.51-0.91-0.64-1.17-0.39-3.26 0.37-3.7 1.59-0.79 2.19 0.7 4.56 3.05 3.8 0.64-0.21 1.77-0.66 2.18-1.24 0.48-0.7-0.25-0.49-0.73-1.17"/>
			<path class="s0" d="m-117.61-135.82c1.77-0.71 2.67-1 4.45-1 0.72 0 1.08-0.05 1.72 0.36 1.05 0.69 1.41 1.99 1.3 3.14-0.1 0.96-0.42 2.29-0.76 3.21-0.25 0.68-0.88 0.8-1.52 0.93-0.58 0.12-1.86-0.21-2.32 0.05-0.49 0.27-1.99 0.36-2.37-0.15-0.35-0.46-0.72-0.66-0.97-1.22-0.24-0.54-0.35-1.06-0.55-1.59-0.27-0.74-0.75-2.74 0.25-3.18 0.58-0.26 0.83-0.42 1.5-0.42 0.19 0 0.35 0.14 0.55 0.14 0.28 0-0.54-0.18-0.82-0.18"/>
			<path class="s0" d="m-114.42-143.1c1.28-1.66 2.45-3.37 3.78-4.98 0.71-0.87 1.59-1.61 2.36-2.44 2.2-2.38 4.44-4.97 6.12-7.75 1.65-2.73 3.9-5.71 6.35-7.76 1.29-1.09 2.45-2.28 3.57-3.53 1.09-1.22 1.6-2.91 2.63-4.19 0.8-1 6.04-7.75 6.95-3.64 0.36 1.61-1.21 2.74-2.2 3.73-1.12 1.12-2.25 2.54-3.2 3.82-0.93 1.23-2.04 2.31-2.94 3.55-1.22 1.68-3.43 2.89-4.32 4.8-0.73 1.57-1.95 2.84-2.86 4.3-1.26 2.02-2.75 3.71-4.24 5.56-1.18 1.47-3.03 2.67-3.86 4.35-0.7 1.4-1.94 1.98-3.07 2.89-0.49 0.39-1.09 0.61-1.53 1.16-0.14 0.18-0.4 0.39-0.54 0.18-0.07-0.11-0.37 0.15-0.32 0.28 0.2 0.45-0.27-1.09-0.32-1.24"/>
			<path class="s0" d="m-115.15-142.64c0.35 0.17 2.55 1.84 2.55 0.5 0-0.41 0.52-1.09 0.7-1.5 0.14-0.32-1.11-0.02-1.3 0.22-0.24 0.32-0.72 0.57 0.05 0.59 0.59 0.02 1.05-0.23 1.5-0.58 0.13-0.1 1.87 0.17 0.32 0.13-0.82-0.02-1.62 0-2.41 0-0.68 0 0.7-0.18 0.9-0.18 0.16 0-1.15 0.78-1.38 0.52-0.06-0.06-0.15-0.23 0.07-0.34"/>
			<path class="s0" d="m-144.08-149.37c0.1 0.05 3.36 1.75 3.37 1.54 0.01-0.25-0.17-0.47-0.04-0.73 0.55-1.1 1.26-0.57 2.21-0.14 0.73 0.33-0.39-3.35 1.84-1.8 1.15 0.81 1.46 0.68 1.27-0.67-0.14-1.02 0.21-1.02 1.09-0.91 0.59 0.07 1.02 0.2 1.36-0.37 0.41-0.69 0.88-1.08 1.72-0.78 0.7 0.25 1.33 0.94 1.81 0.06 0.21-0.39 0.03-1.56 0.7-1.33 0.42 0.14 0.97 0.68 1.45 0.51 0.36-0.13 0.64-1.25 1.05-1.07 0.43 0.18 0.87 0.99 1.41 0.8 0.26-0.1 0.74-0.95 0.23-0.85"/>
			<path class="s0" d="m-131.25-151.01c1.13 0.92 5.35 5.82 6.59 2.16 0.22-0.66 0.25-1.96 0.88-0.88 0.51 0.88 1.28 1.5 2.12 0.66 0.56-0.56 0.8-1.5 1.6-1.79 0.73-0.27 1.26 1.1 1.87 0.3 0.48-0.64 0.25-1.75-0.47-2.14-0.23-0.13-0.3 0.31-0.4 0.41"/>
			<path class="s0" d="m-121.52-156.65c1.76-0.3 3.97-0.92 5.31 0.66 0.62 0.72 0.56 1.66 0.15 2.48-0.3 0.61-1.1 0.91-1.62 0.32-0.42-0.49 0.45-1.29 0.76-1.59 1.07-1.01 2.64 0.61 2.98 1.72 0.28 0.92-2.24 3.05-1.94 2.14"/>
			<path class="s0" d="m-91.96-153.56c0.53-0.18 3.88-1.26 3.24 0.53-0.33 0.91-1.6 1.4-2.43 1.7-0.39 0.15-1.4 0.12-0.74-0.45 0.57-0.5 1.37-0.73 2.12-0.67 2.92 0.24-1.17 3.59-2 4.06-1.63 0.89-3.85 1.84-5.55 0.74"/>
			<path class="s0" d="m-109.88-158.93c0.7 1.13 1.53 2.26 2.12 3.45 0.21 0.4-0.68-0.64-0.88-1.05-0.06-0.1-0.44-1.3-0.47-1.29-0.45 0.1-0.55 2.13-0.67 2.5-0.57 1.77-1.97 1.1-3.34 0.96-1.66-0.16-2.41 1.48-3.32 2.53-0.74 0.84-1.03 1.09-0.53 2.09 0.4 0.81 0.57 1.59 0 2.32-0.45 0.57-1 0.93-1.54 1.4-0.49 0.43 0.21 0.36 0.12 0.1-0.25-0.7-1.81-0.56-2.32-0.52-1.89 0.12-3.82-0.35-5.68-0.24-0.99 0.07-1.92 0.62-2.9 0.76-0.99 0.15 0.32 1.01 0.7 1.26 0.64 0.43-1.26-0.91-1.95-1.24-1.17-0.55-2.25-0.98-2.86-2.2-0.6-1.23-1.13-2.06-2.16-2.96-0.35-0.31-0.39-0.78-0.22-1.2 0.4-0.98 1.28-1.77 2.16-2.3"/>
			<path class="s0" d="m-110.06-155.29c-2.28-1.59-4.16-2.27-6.84-2.64-0.94-0.12-1.95-0.77-2.56-1.5-0.55-0.64-0.24-0.47-0.88 0.4-0.88 1.19-1.53 0.12-2.65 0.44-1.72 0.48-3.2 2.08-4.95 2.37-0.47 0.08-0.36-0.72-0.96-0.37-1 0.58-1.77 1.13-2.95 1.31-0.71 0.11-2.06 0.58-1.95 1.45"/>
			<path class="s0" d="m-94.59-155.29c2.2 0.22 4.43 0.19 6.62 0.42 0.77 0.08 1.16 0.4 1.71 0.9 0.48 0.46 1.25 1.53 1.95 1.59 1.01 0.08 1.54-0.34 2.48-0.63 0.57-0.18 2.39 0 1.79 0"/>
			<path class="s0" d="m-96.23-152.83c-2.37 1.56-3.63 3.92-6.16 5.34-0.5 0.28-2.04 0.83-1.92 1.75 0.08 0.67 5.21-1.42 5.99-1.82"/>
			<path class="s0" d="m-87.41-150.65c1.29 0.96 2.4 2.33 4.01 1.84 0.43-0.13 1.34-0.18 1.63-0.47"/>
			<path class="s0" d="m170.1-39.5c0.38 1.95 1.34 3.22 2.09 5 0.51 1.22 1.47 2.16 2 3.34 0.57 1.29 1.43 2.8 2.23 3.94 0.69 0.98 1.14 1.91 2.01 2.78 1.53 1.53 2.68 3.35 4.22 4.86 2.23 2.19 6.02 5.05 9.27 4.87 1.05-0.06 2.21 0.27 3.23 0.11 0.88-0.13 1.95-0.18 2.83-0.03 1.45 0.25 3.02 0 4.41 0.3 0.75 0.17 1.56-0.07 2.32 0.07 0.98 0.18 2.13 0.23 3.13 0.23 3.28 0 6.54-0.02 9.81-0.44 1.77-0.22 3.52 0.36 5.28 0.05 1.64-0.29 3.83 0.01 5.38-0.66 1.9-0.84 3.79-2.14 5.26-3.61 0.74-0.74 1.3-1.62 1.79-2.53 0.66-1.19 1.02-2.49 1.68-3.68 2.3-4.16 3.61-8.79 5.47-13.13 0.43-1.02 1.15-1.85 1.68-2.79 0.13-0.24 0.19-0.55 0.41-0.78 0.81-0.85-0.74-0.94-1.46-1.27"/>
			<path class="s0" d="m169.73-39.32c1.63-2.13 3.01-3.69 5.37-4.89 1.98-1.01 4.03-2.21 5.82-3.52 2.74-2.02 6.52-2.92 9.87-3.53 3.64-0.66 7.22-1.43 10.92-1.43 1.15 0 2.28 0.34 3.43 0.36q2.06 0.02 4.11 0.18c2.1 0.18 4.25 0.14 6.35 0.18 2.93 0.07 5.73 1.58 8.66 1.82 1.74 0.14 3.77 0.4 5.47 0.87 0.63 0.18 1.36 0.3 1.95 0.59 0.74 0.36 1.25 0.96 1.93 1.38 2.19 1.36 4.63 2 6.99 3.04 0.72 0.31 1.97 0.86 2.77 0.86 1.1 0 1.04 2.03 1.04 0"/>
			<path class="s0" d="m244.23-42.14c-1.35 1.81-2.31 2.49-4.22 3.55-1.5 0.83-3.17 1.42-4.85 1.72-1.57 0.29-3.29 0.52-4.89 0.65-1.32 0.1-2.67-0.05-4.03 0.1-3.06 0.35-6.15 1.14-9.1 2-4.22 1.24-8.29 1.37-12.65 1.6-4.75 0.26-9.52-0.1-14.18-1.07-1.57-0.33-3.23-0.03-4.83-0.1-1.76-0.07-3.49-0.55-5.14-1.12-0.7-0.25-1.34-0.62-2.08-0.78-0.85-0.2-1.72-0.12-2.57-0.32-1.19-0.29-2.57-0.81-3.57-1.5-0.44-0.3-1.09-0.55-1.43-1.01-0.1-0.13-0.23-0.42-0.23-0.58 0-0.38-0.31-0.28 0.18 0.04"/>
			<path class="s0" d="m205.12-23.68c1.11-0.12 2.57-0.1 2.11-1.52-0.15-0.46-0.52-0.51-0.91-0.64-1.17-0.39-3.26 0.37-3.7 1.59-0.79 2.19 0.7 4.56 3.05 3.8 0.64-0.21 1.77-0.66 2.18-1.24 0.48-0.7-0.25-0.49-0.73-1.17"/>
			<path class="s0" d="m201.75-26.04c1.77-0.71 2.67-1 4.45-1 0.73 0 1.08-0.05 1.72 0.36 1.05 0.69 1.41 1.99 1.3 3.14-0.1 0.96-0.41 2.29-0.76 3.21-0.25 0.68-0.88 0.8-1.52 0.93-0.58 0.12-1.86-0.21-2.32 0.05-0.49 0.27-1.99 0.36-2.37-0.15-0.35-0.46-0.72-0.66-0.97-1.22-0.24-0.54-0.35-1.06-0.55-1.59-0.27-0.74-0.74-2.74 0.25-3.19 0.58-0.25 0.83-0.41 1.5-0.41 0.19 0 0.35 0.14 0.55 0.14 0.28 0-0.54-0.18-0.82-0.18"/>
			<path class="s0" d="m204.94-33.32c1.28-1.66 2.45-3.37 3.78-4.98 0.71-0.87 1.59-1.61 2.36-2.44 2.2-2.38 4.44-4.97 6.12-7.75 1.65-2.73 3.9-5.71 6.35-7.76 1.29-1.09 2.45-2.28 3.57-3.53 1.09-1.22 1.6-2.91 2.63-4.19 0.8-1 6.04-7.75 6.95-3.64 0.36 1.61-1.21 2.74-2.2 3.73-1.12 1.12-2.25 2.54-3.2 3.82-0.92 1.23-2.05 2.31-2.94 3.55-1.22 1.68-3.43 2.89-4.32 4.8-0.73 1.57-1.95 2.84-2.86 4.3-1.27 2.02-2.75 3.71-4.24 5.56-1.18 1.47-3.03 2.67-3.86 4.35-0.7 1.4-1.94 1.98-3.07 2.89-0.49 0.39-1.09 0.61-1.53 1.16-0.14 0.18-0.4 0.39-0.54 0.18-0.07-0.11-0.37 0.15-0.31 0.28 0.19 0.45-0.28-1.09-0.33-1.24"/>
			<path class="s0" d="m204.21-32.86c0.35 0.17 2.55 1.84 2.55 0.5 0-0.41 0.52-1.09 0.7-1.5 0.14-0.32-1.11-0.02-1.3 0.22-0.24 0.32-0.72 0.57 0.05 0.6 0.59 0.01 1.05-0.24 1.5-0.59 0.13-0.1 1.86 0.17 0.32 0.13-0.82-0.02-1.62 0-2.41 0-0.68 0 0.7-0.18 0.9-0.18 0.16 0-1.15 0.78-1.38 0.52-0.06-0.06-0.15-0.23 0.07-0.34"/>
			<path class="s0" d="m175.28-39.59c0.1 0.05 3.36 1.75 3.37 1.54 0.01-0.25-0.17-0.47-0.04-0.73 0.55-1.1 1.26-0.57 2.21-0.14 0.73 0.33-0.39-3.35 1.84-1.8 1.15 0.81 1.46 0.68 1.27-0.67-0.14-1.02 0.21-1.02 1.08-0.91 0.6 0.07 1.03 0.2 1.37-0.37 0.41-0.69 0.88-1.08 1.72-0.78 0.7 0.25 1.33 0.94 1.81 0.05 0.21-0.38 0.03-1.55 0.7-1.32 0.42 0.14 0.97 0.68 1.45 0.51 0.36-0.13 0.64-1.25 1.05-1.07 0.43 0.18 0.87 0.99 1.41 0.8 0.26-0.09 0.74-0.95 0.23-0.84"/>
			<path class="s0" d="m188.11-41.23c1.13 0.92 5.35 5.82 6.59 2.16 0.22-0.66 0.25-1.96 0.88-0.88 0.51 0.88 1.28 1.5 2.12 0.66 0.55-0.56 0.8-1.5 1.6-1.79 0.73-0.27 1.26 1.1 1.87 0.3 0.48-0.64 0.25-1.75-0.47-2.14-0.23-0.13-0.3 0.31-0.4 0.42"/>
			<path class="s0" d="m197.84-46.87c1.76-0.3 3.97-0.92 5.31 0.65 0.62 0.73 0.56 1.67 0.15 2.49-0.3 0.61-1.1 0.91-1.62 0.32-0.42-0.49 0.45-1.29 0.76-1.59 1.06-1.01 2.64 0.61 2.98 1.72 0.27 0.92-2.24 3.05-1.94 2.14"/>
			<path class="s0" d="m227.4-43.78c0.53-0.18 3.88-1.26 3.24 0.53-0.33 0.91-1.6 1.41-2.43 1.71-0.39 0.14-1.4 0.11-0.74-0.46 0.57-0.5 1.37-0.73 2.12-0.67 2.92 0.24-1.17 3.59-2 4.06-1.63 0.89-3.85 1.84-5.55 0.74"/>
			<path class="s0" d="m209.49-49.15c0.69 1.13 1.52 2.26 2.11 3.45 0.21 0.4-0.67-0.64-0.88-1.05-0.06-0.1-0.44-1.3-0.47-1.29-0.45 0.1-0.55 2.13-0.67 2.5-0.57 1.77-1.97 1.1-3.34 0.96-1.66-0.16-2.41 1.48-3.32 2.53-0.74 0.84-1.03 1.09-0.53 2.09 0.4 0.81 0.57 1.59 0 2.32-0.45 0.57-1 0.93-1.54 1.4-0.49 0.43 0.21 0.36 0.12 0.1-0.25-0.7-1.81-0.56-2.32-0.52-1.89 0.12-3.82-0.35-5.68-0.24-0.99 0.07-1.92 0.62-2.9 0.76-0.99 0.15 0.32 1.01 0.7 1.26 0.64 0.43-1.26-0.91-1.95-1.24-1.17-0.55-2.25-0.98-2.86-2.2-0.6-1.23-1.13-2.06-2.16-2.96-0.35-0.31-0.39-0.78-0.22-1.21 0.4-0.97 1.28-1.76 2.16-2.29"/>
			<path class="s0" d="m209.3-45.51c-2.28-1.59-4.16-2.27-6.84-2.64-0.94-0.12-1.95-0.78-2.56-1.5-0.55-0.64-0.24-0.47-0.88 0.4-0.88 1.19-1.53 0.12-2.65 0.44-1.72 0.48-3.2 2.08-4.95 2.37-0.48 0.08-0.36-0.72-0.96-0.37-1 0.58-1.77 1.13-2.95 1.31-0.71 0.12-2.06 0.58-1.95 1.45"/>
			<path class="s0" d="m224.77-45.51c2.2 0.22 4.43 0.19 6.62 0.42 0.77 0.09 1.16 0.4 1.71 0.9 0.49 0.46 1.25 1.53 1.95 1.59 1.01 0.08 1.54-0.34 2.48-0.63 0.57-0.18 2.39 0 1.79 0"/>
			<path class="s0" d="m223.13-43.05c-2.37 1.56-3.63 3.92-6.16 5.34-0.5 0.28-2.04 0.83-1.92 1.75 0.08 0.67 5.21-1.42 5.99-1.82"/>
			<path class="s0" d="m231.95-40.87c1.29 0.96 2.4 2.33 4.01 1.84 0.43-0.13 1.34-0.18 1.63-0.47"/>
			<path class="s0" d="m210.02 241.6c0.38 1.96 1.34 3.23 2.09 5.01 0.51 1.21 1.47 2.15 2 3.34 0.57 1.28 1.43 2.79 2.23 3.93 0.69 0.99 1.14 1.91 2.01 2.78 1.53 1.53 2.68 3.35 4.22 4.86 2.23 2.19 6.02 5.05 9.27 4.87 1.05-0.06 2.21 0.27 3.23 0.11 0.88-0.13 1.95-0.17 2.83-0.02 1.45 0.25 3.02 0 4.41 0.3 0.75 0.16 1.56-0.08 2.32 0.06 0.98 0.18 2.13 0.23 3.13 0.23 3.28 0 6.54-0.02 9.81-0.44 1.77-0.22 3.53 0.37 5.28 0.06 1.64-0.3 3.83 0.01 5.38-0.67 1.9-0.83 3.79-2.14 5.26-3.61 0.74-0.74 1.3-1.62 1.79-2.53 0.66-1.19 1.02-2.48 1.68-3.68 2.3-4.16 3.61-8.79 5.46-13.12 0.44-1.03 1.16-1.85 1.69-2.8 0.13-0.24 0.19-0.54 0.41-0.77 0.81-0.86-0.75-0.95-1.46-1.28"/>
			<path class="s0" d="m209.65 241.78c1.63-2.13 3.01-3.69 5.37-4.89 1.98-1.01 4.03-2.2 5.82-3.52 2.74-2.02 6.52-2.92 9.87-3.52 3.64-0.67 7.22-1.44 10.92-1.44 1.15 0 2.28 0.34 3.43 0.36q2.06 0.02 4.11 0.19c2.1 0.17 4.25 0.13 6.35 0.18 2.93 0.06 5.73 1.58 8.66 1.81 1.74 0.14 3.78 0.4 5.47 0.88 0.63 0.17 1.36 0.29 1.95 0.58 0.74 0.36 1.25 0.97 1.93 1.39 2.19 1.36 4.63 2 6.99 3.03 0.72 0.32 1.97 0.86 2.77 0.86 1.1 0 1.05 2.04 1.05 0"/>
			<path class="s0" d="m284.15 238.96c-1.35 1.81-2.31 2.5-4.22 3.55-1.5 0.83-3.17 1.42-4.85 1.73-1.57 0.28-3.29 0.51-4.88 0.64-1.33 0.11-2.68-0.05-4.04 0.11-3.06 0.34-6.15 1.13-9.1 2-4.22 1.23-8.29 1.36-12.65 1.59-4.75 0.26-9.52-0.1-14.18-1.07-1.57-0.32-3.23-0.03-4.83-0.09-1.76-0.07-3.49-0.56-5.14-1.13-0.7-0.24-1.35-0.61-2.08-0.78-0.85-0.19-1.72-0.12-2.57-0.32-1.19-0.29-2.57-0.81-3.57-1.5-0.44-0.3-1.09-0.55-1.43-1-0.1-0.14-0.23-0.43-0.23-0.59 0-0.38-0.31-0.28 0.18 0.05"/>
			<path class="s0" d="m245.04 257.43c1.11-0.13 2.57-0.1 2.11-1.53-0.15-0.46-0.52-0.5-0.91-0.64-1.17-0.39-3.26 0.37-3.7 1.59-0.79 2.19 0.7 4.56 3.05 3.8 0.64-0.21 1.77-0.66 2.18-1.24 0.49-0.69-0.25-0.49-0.73-1.16"/>
			<path class="s0" d="m241.67 255.06c1.77-0.7 2.67-1 4.46-1 0.72 0 1.07-0.05 1.71 0.37 1.05 0.68 1.41 1.98 1.3 3.13-0.1 0.97-0.41 2.29-0.76 3.21-0.25 0.69-0.88 0.8-1.52 0.93-0.58 0.12-1.86-0.21-2.32 0.05-0.49 0.27-1.99 0.36-2.37-0.14-0.34-0.47-0.72-0.67-0.97-1.23-0.24-0.54-0.35-1.05-0.55-1.59-0.26-0.73-0.75-2.74 0.25-3.18 0.58-0.26 0.83-0.42 1.5-0.42 0.19 0 0.35 0.15 0.55 0.15 0.28 0-0.54-0.19-0.82-0.19"/>
			<path class="s0" d="m244.86 247.79c1.28-1.66 2.45-3.37 3.78-4.99 0.71-0.86 1.59-1.61 2.36-2.44 2.2-2.37 4.44-4.97 6.12-7.74 1.65-2.74 3.9-5.72 6.35-7.77 1.29-1.08 2.45-2.28 3.57-3.53 1.09-1.21 1.6-2.91 2.63-4.19 0.8-0.99 6.04-7.74 6.95-3.64 0.36 1.62-1.21 2.74-2.2 3.73-1.12 1.12-2.25 2.55-3.2 3.82-0.93 1.23-2.05 2.31-2.94 3.55-1.22 1.68-3.43 2.89-4.32 4.8-0.73 1.57-1.95 2.84-2.86 4.3-1.26 2.02-2.75 3.71-4.24 5.57-1.18 1.46-3.03 2.67-3.86 4.34-0.7 1.4-1.94 1.99-3.07 2.89-0.49 0.39-1.09 0.61-1.53 1.16-0.14 0.18-0.4 0.39-0.54 0.19-0.07-0.12-0.37 0.14-0.32 0.27 0.2 0.45-0.27-1.09-0.32-1.23"/>
			<path class="s0" d="m244.13 248.24c0.35 0.18 2.55 1.85 2.55 0.5 0-0.41 0.52-1.09 0.7-1.5 0.14-0.31-1.11-0.01-1.3 0.23-0.24 0.31-0.72 0.57 0.05 0.59 0.59 0.01 1.05-0.24 1.5-0.59 0.13-0.1 1.87 0.18 0.32 0.13-0.82-0.02-1.62 0-2.41 0-0.68 0 0.7-0.18 0.9-0.18 0.16 0-1.16 0.78-1.38 0.53-0.06-0.07-0.15-0.24 0.07-0.35"/>
			<path class="s0" d="m215.2 241.51c0.1 0.05 3.35 1.75 3.37 1.55 0.01-0.26-0.17-0.48-0.04-0.73 0.55-1.1 1.26-0.57 2.21-0.15 0.73 0.33-0.39-3.35 1.84-1.79 1.15 0.8 1.46 0.67 1.27-0.68-0.14-1.01 0.21-1.02 1.08-0.91 0.6 0.07 1.03 0.2 1.37-0.36 0.41-0.69 0.88-1.08 1.72-0.79 0.7 0.25 1.33 0.94 1.81 0.06 0.21-0.39 0.03-1.55 0.7-1.33 0.42 0.14 0.97 0.69 1.45 0.51 0.36-0.13 0.64-1.25 1.05-1.07 0.43 0.18 0.87 1 1.41 0.8 0.26-0.09 0.74-0.94 0.23-0.84"/>
			<path class="s0" d="m228.03 239.87c1.13 0.92 5.35 5.82 6.59 2.16 0.22-0.66 0.25-1.95 0.88-0.88 0.51 0.89 1.28 1.5 2.12 0.66 0.55-0.55 0.8-1.5 1.6-1.79 0.73-0.26 1.26 1.11 1.87 0.31 0.49-0.65 0.25-1.76-0.47-2.15-0.23-0.12-0.3 0.31-0.4 0.42"/>
			<path class="s0" d="m237.76 234.23c1.76-0.3 3.97-0.91 5.31 0.66 0.62 0.73 0.56 1.66 0.15 2.49-0.3 0.6-1.1 0.9-1.62 0.31-0.42-0.49 0.45-1.29 0.76-1.58 1.06-1.02 2.64 0.61 2.98 1.71 0.28 0.92-2.24 3.06-1.94 2.14"/>
			<path class="s0" d="m267.33 237.32c0.52-0.18 3.87-1.26 3.23 0.53-0.33 0.92-1.6 1.41-2.43 1.71-0.39 0.14-1.4 0.12-0.74-0.46 0.57-0.49 1.37-0.72 2.12-0.66 2.92 0.23-1.16 3.59-2 4.05-1.63 0.9-3.85 1.84-5.55 0.75"/>
			<path class="s0" d="m249.4 231.96c0.7 1.12 1.53 2.26 2.12 3.44 0.21 0.41-0.67-0.64-0.88-1.04-0.06-0.11-0.44-1.3-0.47-1.3-0.44 0.1-0.55 2.13-0.67 2.51-0.57 1.77-1.97 1.09-3.34 0.96-1.66-0.16-2.41 1.48-3.32 2.52-0.74 0.84-1.03 1.1-0.53 2.09 0.4 0.81 0.57 1.6 0 2.32-0.45 0.57-1 0.93-1.54 1.41-0.49 0.43 0.21 0.35 0.12 0.1-0.25-0.71-1.81-0.56-2.32-0.53-1.89 0.12-3.82-0.35-5.68-0.23-0.99 0.06-1.92 0.61-2.9 0.76-0.99 0.14 0.32 1.01 0.7 1.25 0.64 0.43-1.26-0.91-1.95-1.23-1.17-0.56-2.25-0.99-2.86-2.21-0.6-1.22-1.13-2.06-2.16-2.96-0.35-0.31-0.39-0.78-0.22-1.2 0.4-0.98 1.28-1.77 2.16-2.3"/>
			<path class="s0" d="m249.22 235.6c-2.28-1.59-4.16-2.28-6.84-2.64-0.94-0.13-1.95-0.78-2.56-1.5-0.55-0.64-0.24-0.47-0.88 0.4-0.88 1.19-1.53 0.12-2.65 0.43-1.72 0.48-3.2 2.08-4.95 2.38-0.47 0.08-0.36-0.72-0.96-0.38-1 0.58-1.77 1.13-2.95 1.32-0.71 0.11-2.06 0.58-1.95 1.44"/>
			<path class="s0" d="m264.69 235.6c2.2 0.21 4.43 0.18 6.62 0.42 0.77 0.08 1.16 0.39 1.7 0.9 0.49 0.45 1.26 1.52 1.96 1.58 1.01 0.09 1.54-0.33 2.48-0.63 0.57-0.18 2.39 0 1.79 0"/>
			<path class="s0" d="m263.05 238.05c-2.37 1.56-3.63 3.93-6.16 5.34-0.5 0.29-2.04 0.83-1.92 1.75 0.08 0.67 5.21-1.42 5.99-1.81"/>
			<path class="s0" d="m271.87 240.24c1.29 0.95 2.4 2.32 4.01 1.83 0.43-0.13 1.34-0.18 1.63-0.47"/>
			<path class="s0" d="m5.1 33.02c0.38 1.96 1.35 3.23 2.1 5.01 0.51 1.21 1.46 2.15 1.99 3.34 0.58 1.28 1.44 2.79 2.24 3.94 0.68 0.97 1.13 1.9 2 2.77 1.53 1.53 2.69 3.35 4.22 4.86 2.24 2.19 6.02 5.05 9.28 4.87 1.04-0.05 2.2 0.27 3.23 0.11 0.88-0.13 1.95-0.17 2.83-0.02 1.45 0.25 3.02 0 4.4 0.3 0.75 0.16 1.56-0.08 2.32 0.06 0.98 0.18 2.14 0.23 3.14 0.23 3.27 0 6.54-0.02 9.8-0.43 1.78-0.23 3.53 0.36 5.28 0.05 1.64-0.3 3.84 0.01 5.38-0.67 1.9-0.83 3.8-2.14 5.26-3.61 0.74-0.74 1.3-1.62 1.8-2.53 0.65-1.19 1.02-2.48 1.68-3.68 2.29-4.16 3.6-8.79 5.46-13.12 0.44-1.03 1.16-1.86 1.68-2.8 0.13-0.24 0.19-0.54 0.41-0.77 0.81-0.86-0.74-0.95-1.46-1.28"/>
			<path class="s0" d="m4.74 33.2c1.62-2.13 3-3.69 5.36-4.89 1.98-1.01 4.03-2.2 5.82-3.52 2.75-2.02 6.53-2.92 9.87-3.52 3.64-0.67 7.22-1.44 10.93-1.44 1.14 0 2.28 0.35 3.42 0.36q2.06 0.02 4.12 0.19c2.09 0.17 4.24 0.13 6.34 0.18 2.93 0.06 5.74 1.58 8.66 1.81 1.75 0.14 3.78 0.4 5.47 0.88 0.64 0.17 1.36 0.29 1.95 0.58 0.74 0.36 1.26 0.97 1.93 1.39 2.19 1.36 4.63 2 6.99 3.03 0.73 0.32 1.97 0.86 2.77 0.86 1.11 0 1.05 2.03 1.05 0"/>
			<path class="s0" d="m79.24 30.38c-1.35 1.81-2.31 2.5-4.23 3.55-1.5 0.83-3.16 1.42-4.85 1.73-1.57 0.28-3.29 0.51-4.88 0.64-1.33 0.11-2.68-0.05-4.03 0.11-3.07 0.34-6.16 1.13-9.11 2-4.22 1.23-8.29 1.36-12.64 1.59-4.76 0.26-9.53-0.1-14.18-1.07-1.58-0.32-3.24-0.03-4.84-0.09-1.76-0.07-3.48-0.56-5.14-1.13-0.7-0.24-1.34-0.61-2.07-0.78-0.86-0.19-1.73-0.12-2.58-0.32-1.18-0.29-2.57-0.81-3.57-1.5-0.43-0.3-1.09-0.55-1.43-1-0.1-0.14-0.23-0.43-0.23-0.59 0-0.38-0.3-0.28 0.19 0.05"/>
			<path class="s0" d="m40.12 48.85c1.11-0.12 2.57-0.1 2.11-1.53-0.14-0.46-0.51-0.5-0.91-0.63-1.17-0.4-3.26 0.36-3.7 1.58-0.79 2.19 0.7 4.56 3.05 3.8 0.64-0.2 1.77-0.66 2.18-1.24 0.49-0.69-0.24-0.49-0.73-1.16"/>
			<path class="s0" d="m36.76 46.48c1.76-0.7 2.66-1 4.45-1 0.72 0 1.08-0.05 1.71 0.37 1.05 0.68 1.41 1.98 1.3 3.13-0.09 0.97-0.41 2.29-0.75 3.21-0.26 0.69-0.88 0.81-1.52 0.93-0.59 0.12-1.87-0.21-2.33 0.05-0.49 0.27-1.99 0.36-2.36-0.14-0.35-0.47-0.72-0.67-0.98-1.23-0.24-0.54-0.35-1.05-0.54-1.59-0.27-0.73-0.75-2.74 0.24-3.18 0.59-0.26 0.84-0.42 1.5-0.42 0.19 0 0.36 0.15 0.55 0.15 0.28 0-0.54-0.19-0.82-0.19"/>
			<path class="s0" d="m39.94 39.21c1.28-1.66 2.45-3.37 3.78-4.99 0.71-0.86 1.6-1.61 2.36-2.44 2.2-2.37 4.44-4.97 6.12-7.75 1.65-2.73 3.91-5.71 6.35-7.76 1.3-1.08 2.45-2.28 3.58-3.53 1.09-1.21 1.59-2.91 2.62-4.19 0.8-0.99 6.05-7.74 6.96-3.64 0.36 1.61-1.22 2.74-2.21 3.73-1.12 1.12-2.25 2.55-3.2 3.82-0.92 1.23-2.04 2.31-2.94 3.55-1.21 1.68-3.43 2.89-4.32 4.8-0.73 1.57-1.94 2.84-2.86 4.3-1.26 2.02-2.74 3.71-4.23 5.56-1.18 1.47-3.03 2.68-3.87 4.35-0.7 1.4-1.94 1.99-3.07 2.89-0.49 0.4-1.09 0.61-1.52 1.16-0.15 0.18-0.41 0.39-0.54 0.19-0.08-0.12-0.38 0.14-0.32 0.27 0.19 0.45-0.28-1.09-0.32-1.23"/>
			<path class="s0" d="m39.21 39.66c0.35 0.18 2.55 1.85 2.55 0.5 0-0.41 0.52-1.09 0.71-1.5 0.14-0.31-1.12-0.01-1.31 0.23-0.24 0.31-0.72 0.57 0.05 0.59 0.59 0.02 1.05-0.24 1.5-0.59 0.13-0.1 1.87 0.18 0.32 0.13-0.82-0.02-1.62 0-2.41 0-0.68 0 0.7-0.18 0.9-0.18 0.16 0-1.15 0.78-1.38 0.53-0.05-0.06-0.15-0.24 0.07-0.35"/>
			<path class="s0" d="m10.29 32.93c0.1 0.05 3.35 1.76 3.36 1.55 0.02-0.26-0.16-0.48-0.04-0.73 0.55-1.1 1.26-0.57 2.21-0.15 0.74 0.33-0.38-3.35 1.84-1.79 1.15 0.8 1.46 0.67 1.27-0.68-0.14-1.01 0.21-1.02 1.09-0.91 0.6 0.07 1.02 0.2 1.36-0.36 0.42-0.69 0.88-1.08 1.73-0.79 0.7 0.25 1.32 0.94 1.8 0.06 0.21-0.39 0.03-1.55 0.7-1.33 0.42 0.14 0.98 0.69 1.45 0.51 0.37-0.12 0.64-1.25 1.06-1.07 0.42 0.18 0.86 1 1.4 0.8 0.26-0.09 0.74-0.94 0.23-0.84"/>
			<path class="s0" d="m23.11 31.29c1.13 0.92 5.35 5.82 6.59 2.16 0.22-0.66 0.26-1.95 0.88-0.88 0.51 0.89 1.29 1.5 2.12 0.66 0.56-0.55 0.81-1.5 1.6-1.79 0.73-0.26 1.26 1.11 1.87 0.31 0.49-0.65 0.25-1.76-0.46-2.15-0.24-0.12-0.31 0.31-0.41 0.42"/>
			<path class="s0" d="m32.85 25.65c1.75-0.3 3.96-0.91 5.3 0.66 0.62 0.73 0.56 1.66 0.15 2.48-0.3 0.61-1.1 0.91-1.61 0.32-0.43-0.49 0.44-1.29 0.75-1.58 1.07-1.02 2.65 0.61 2.98 1.71 0.28 0.92-2.24 3.06-1.93 2.14"/>
			<path class="s0" d="m62.41 28.74c0.52-0.18 3.88-1.26 3.23 0.53-0.33 0.92-1.59 1.41-2.42 1.71-0.4 0.14-1.41 0.12-0.75-0.46 0.57-0.49 1.37-0.73 2.12-0.66 2.92 0.23-1.16 3.59-2 4.05-1.63 0.9-3.84 1.84-5.55 0.75"/>
			<path class="s0" d="m44.49 23.38c0.69 1.12 1.52 2.26 2.12 3.44 0.2 0.41-0.68-0.64-0.89-1.04-0.05-0.11-0.43-1.3-0.47-1.3-0.44 0.1-0.55 2.13-0.67 2.51-0.56 1.77-1.96 1.09-3.34 0.96-1.66-0.16-2.4 1.48-3.32 2.52-0.74 0.84-1.03 1.1-0.53 2.09 0.41 0.81 0.57 1.59 0 2.32-0.44 0.57-1 0.93-1.54 1.4-0.49 0.44 0.22 0.36 0.12 0.11-0.25-0.71-1.81-0.56-2.32-0.53-1.89 0.13-3.82-0.35-5.68-0.23-0.98 0.06-1.91 0.61-2.89 0.76-1 0.14 0.32 1.01 0.69 1.25 0.64 0.43-1.25-0.9-1.95-1.23-1.17-0.56-2.25-0.98-2.85-2.21-0.61-1.22-1.14-2.06-2.16-2.96-0.36-0.31-0.4-0.78-0.23-1.2 0.4-0.98 1.29-1.77 2.17-2.3"/>
			<path class="s0" d="m44.31 27.02c-2.28-1.59-4.17-2.28-6.85-2.64-0.94-0.13-1.94-0.78-2.56-1.5-0.54-0.64-0.23-0.47-0.88 0.4-0.88 1.19-1.53 0.12-2.65 0.43-1.72 0.48-3.2 2.08-4.94 2.38-0.48 0.08-0.37-0.72-0.96-0.38-1.01 0.58-1.78 1.13-2.95 1.32-0.72 0.11-2.06 0.58-1.95 1.44"/>
			<path class="s0" d="m59.77 27.02c2.2 0.21 4.43 0.18 6.62 0.42 0.77 0.08 1.17 0.39 1.71 0.9 0.49 0.45 1.25 1.52 1.95 1.58 1.02 0.09 1.54-0.33 2.49-0.63 0.57-0.18 2.38 0 1.78 0"/>
			<path class="s0" d="m58.13 29.47c-2.36 1.56-3.63 3.92-6.16 5.34-0.5 0.29-2.03 0.83-1.92 1.75 0.09 0.67 5.21-1.42 5.99-1.81"/>
			<path class="s0" d="m66.96 31.65c1.28 0.96 2.39 2.33 4 1.84 0.43-0.13 1.34-0.18 1.64-0.47"/>
			<path class="s0" d="m-25.01-168.53c-0.93 1.32-2.15 2.47-2.8 3.95-0.24 0.54-0.32 1.12-0.57 1.64-0.25 0.52-0.55 1.14-0.74 1.68-0.37 1.08-1.24 1.93-1.84 2.86-0.35 0.55-0.93 1.41-1.47 1.81-0.27 0.2-1.01 1.16-0.68 1.24 0.76 0.19 1.4 0.59 2.07 0.99 0.93 0.55 1.85 0.96 2.68 1.66 1.05 0.88 2.29 1.51 3.31 2.42 0.8 0.72 1.5 1.55 2.31 2.26 0.71 0.62 1.55 1.07 2.27 1.68 0.05 0.04 0.56 0.47 0.5 0.56-0.07 0.09-0.82-0.88-0.89-0.98"/>
			<path class="s0" d="m-8.79-169.62c-1.49 3.55-3.13 7.04-4.61 10.6-0.92 2.21-1.69 4.44-2.47 6.7-0.62 1.78-1.38 3.52-2.05 5.27q-0.33 0.92-0.52 1.87c-0.22 1.04-0.2-0.17-0.18-0.62"/>
			<path class="s0" d="m-5.47-170.39c1.31 1.49 2.55 2.98 3.93 4.38 1.14 1.15 1.64 2.81 2.27 4.24 0.65 1.5 1.31 2.73 2.28 4.03 0.12 0.15 0.46 0.53 0.46 0.73 0 0.09-0.46 0.09-0.53 0.1-0.26 0.03-0.56 0.25-0.77 0.38-3.85 2.39-6.45 5.84-8.71 9.66-0.38 0.65-0.67 1.59-1.23 2.1-0.36 0.32-0.65 0.75-1.08 0.96-0.4 0.2-0.12-0.51-0.06-0.91"/>
			<path class="s0" d="m217.84 170.79c-0.94 1.33-2.16 2.47-2.81 3.95-0.23 0.54-0.31 1.12-0.56 1.64-0.25 0.52-0.56 1.14-0.74 1.69-0.37 1.07-1.25 1.92-1.84 2.85-0.35 0.56-0.93 1.41-1.47 1.81-0.28 0.2-1.01 1.16-0.68 1.24 0.75 0.19 1.4 0.59 2.07 0.99 0.93 0.55 1.85 0.96 2.68 1.66 1.04 0.88 2.28 1.51 3.31 2.42 0.8 0.72 1.5 1.55 2.31 2.26 0.7 0.62 1.55 1.07 2.26 1.68 0.06 0.04 0.57 0.47 0.5 0.56-0.06 0.09-0.82-0.88-0.88-0.98"/>
			<path class="s0" d="m234.06 169.7c-1.49 3.55-3.13 7.04-4.61 10.6-0.92 2.21-1.69 4.44-2.48 6.7-0.61 1.78-1.38 3.51-2.04 5.27q-0.33 0.92-0.53 1.87c-0.22 1.04-0.19-0.17-0.17-0.62"/>
			<path class="s0" d="m237.38 168.93c1.3 1.49 2.55 2.98 3.93 4.38 1.13 1.15 1.63 2.81 2.27 4.24 0.65 1.5 1.31 2.73 2.28 4.03 0.11 0.15 0.45 0.53 0.45 0.73 0 0.09-0.45 0.09-0.53 0.1-0.25 0.03-0.55 0.25-0.77 0.38-3.84 2.39-6.44 5.84-8.7 9.66-0.39 0.65-0.67 1.59-1.23 2.1-0.36 0.32-0.66 0.75-1.08 0.96-0.4 0.2-0.12-0.51-0.07-0.91"/>
			<path class="s0" d="m118.04-18.84c-0.94 1.34-2.16 2.47-2.81 3.96-0.23 0.54-0.31 1.12-0.56 1.64-0.25 0.52-0.56 1.14-0.74 1.68-0.37 1.08-1.25 1.93-1.84 2.86-0.35 0.55-0.93 1.41-1.47 1.81-0.27 0.2-1.01 1.16-0.69 1.24 0.76 0.19 1.41 0.59 2.08 0.99 0.93 0.55 1.85 0.96 2.68 1.66 1.04 0.88 2.29 1.51 3.31 2.42 0.8 0.72 1.5 1.55 2.31 2.26 0.7 0.62 1.55 1.07 2.26 1.67 0.06 0.05 0.57 0.48 0.5 0.57-0.06 0.09-0.82-0.88-0.88-0.98"/>
			<path class="s0" d="m134.26-19.92c-1.49 3.55-3.13 7.04-4.61 10.6-0.92 2.21-1.69 4.44-2.48 6.7-0.61 1.78-1.38 3.52-2.04 5.27q-0.34 0.92-0.53 1.87c-0.22 1.04-0.2-0.17-0.17-0.62"/>
			<path class="s0" d="m137.58-20.69c1.3 1.49 2.55 2.98 3.93 4.38 1.13 1.15 1.63 2.81 2.26 4.24 0.66 1.5 1.32 2.73 2.29 4.03 0.11 0.15 0.45 0.53 0.45 0.73 0 0.09-0.45 0.09-0.53 0.1-0.25 0.03-0.55 0.25-0.77 0.38-3.84 2.39-6.44 5.84-8.7 9.66-0.39 0.65-0.67 1.59-1.23 2.1-0.36 0.32-0.66 0.75-1.08 0.96-0.4 0.2-0.12-0.51-0.07-0.91"/>
			<path class="s0" d="m147.98 252.29c-0.94 1.33-2.16 2.47-2.81 3.96-0.23 0.53-0.31 1.11-0.56 1.63-0.25 0.52-0.56 1.14-0.74 1.69-0.37 1.08-1.25 1.92-1.84 2.86-0.35 0.55-0.93 1.41-1.47 1.8-0.27 0.2-1.01 1.16-0.68 1.25 0.75 0.18 1.4 0.59 2.07 0.98 0.93 0.55 1.85 0.96 2.68 1.66 1.04 0.88 2.29 1.51 3.31 2.43 0.8 0.71 1.5 1.55 2.31 2.26 0.7 0.61 1.55 1.07 2.26 1.67 0.06 0.04 0.57 0.47 0.5 0.56-0.06 0.1-0.82-0.88-0.88-0.98"/>
			<path class="s0" d="m164.2 251.2c-1.49 3.56-3.13 7.04-4.61 10.6-0.92 2.21-1.69 4.44-2.48 6.7-0.61 1.78-1.38 3.52-2.04 5.28q-0.34 0.91-0.53 1.87c-0.22 1.04-0.19-0.18-0.17-0.63"/>
			<path class="s0" d="m167.52 250.44c1.3 1.48 2.55 2.97 3.93 4.37 1.13 1.15 1.63 2.81 2.26 4.25 0.66 1.49 1.32 2.73 2.29 4.02 0.11 0.15 0.45 0.53 0.45 0.73 0 0.1-0.45 0.09-0.53 0.1-0.25 0.04-0.55 0.25-0.77 0.38-3.84 2.39-6.44 5.84-8.7 9.66-0.39 0.65-0.67 1.6-1.23 2.1-0.36 0.32-0.66 0.75-1.08 0.96-0.4 0.21-0.12-0.51-0.07-0.9"/>
			<path class="s0" d="m64.76-161.36c-2.58 0.38-5.62 0.58-6.23 3.66-0.48 2.38-0.3 4.84 1.13 6.9 2.44 3.54 6.07 5.6 10.43 4.87 3.91-0.65 9.27-4.19 9.27-8.58 0-2.48-1.78-4.98-3.26-6.83-1.58-1.99-2.95-4.08-4.94-5.71-2.69-2.19-4.86-2.4-7.28 0.18-1.32 1.42-2.57 3.35-3.15 5.2-0.28 0.91-0.07 1.64-0.07 2.56 0 1.22-0.23-0.58 0-1.18"/>
			<path class="s0" d="m78.15-154.38c2.2 1.96 4.06 3.72 7.94 3.82 2.72 0.06 5.45-0.62 7.99-1.35 1.83-0.52 7.68-3.29 2.94-3.52"/>
			<path class="s0" d="m100.81-171.4c-2.9 3.21-6.9 9.48-5.4 14.29 0.53 1.69 1.3 2.83 2.29 4.28 2 2.91 5.1 2 7.91 1.24 2.04-0.55 4.46-2.29 5.24-4.26 1.08-2.72-1.17-6.98-3.04-8.85-2.1-2.1-3.75-4.64-6.09-6.48-0.62-0.49-1.09-1.01-1.9-0.83-0.91 0.2-1.28 1.07-0.07 1.07"/>
			<path class="s0" d="m131.3 71.51c-2.59 0.38-5.63 0.58-6.24 3.66-0.48 2.38-0.3 4.83 1.13 6.9 2.44 3.53 6.07 5.6 10.44 4.87 3.9-0.65 9.27-4.19 9.27-8.59 0-2.48-1.79-4.97-3.26-6.83-1.59-1.98-2.96-4.07-4.95-5.7-2.69-2.19-4.86-2.41-7.27 0.18-1.32 1.41-2.58 3.34-3.16 5.19-0.28 0.92-0.07 1.65-0.07 2.57 0 1.22-0.23-0.58 0-1.19"/>
			<path class="s0" d="m144.68 78.49c2.2 1.95 4.06 3.72 7.95 3.81 2.72 0.07 5.44-0.61 7.99-1.34 1.82-0.52 7.68-3.3 2.93-3.52"/>
			<path class="s0" d="m167.34 61.47c-2.9 3.2-6.9 9.48-5.4 14.29 0.53 1.69 1.3 2.83 2.29 4.27 2 2.91 5.1 2.01 7.91 1.25 2.04-0.55 4.46-2.29 5.24-4.26 1.08-2.73-1.17-6.98-3.04-8.86-2.09-2.09-3.75-4.64-6.08-6.47-0.63-0.49-1.1-1.02-1.9-0.84-0.92 0.21-1.29 1.08-0.08 1.08"/>
			<path class="s0" d="m83.62-137.48c0.26 2.95 0.61 5.96 3.05 7.94 2.32 1.9 4.46-0.22 5.47-2.5 0.96-2.15 0.84-3.92 0.34-6.17-0.37-1.67 0.1-1.15-1.56-0.49"/>
			<path class="s0" d="m81.4 123.07c-2.59 0.38-5.63 0.58-6.24 3.66-0.48 2.38-0.3 4.84 1.13 6.9 2.44 3.54 6.07 5.6 10.44 4.87 3.9-0.65 9.27-4.19 9.27-8.58 0-2.48-1.79-4.98-3.26-6.83-1.59-1.99-2.95-4.08-4.95-5.71-2.68-2.19-4.86-2.4-7.27 0.18-1.33 1.42-2.58 3.35-3.15 5.2-0.29 0.91-0.08 1.64-0.08 2.56 0 1.22-0.23-0.58 0-1.18"/>
			<path class="s0" d="m94.78 130.06c2.2 1.95 4.06 3.71 7.95 3.81 2.72 0.06 5.44-0.62 7.99-1.35 1.82-0.52 7.68-3.29 2.93-3.52"/>
			<path class="s0" d="m117.44 113.03c-2.9 3.21-6.9 9.48-5.4 14.29 0.53 1.69 1.3 2.83 2.29 4.28 2 2.91 5.1 2 7.91 1.24 2.04-0.55 4.46-2.29 5.24-4.26 1.08-2.72-1.17-6.98-3.04-8.85-2.09-2.1-3.75-4.65-6.08-6.48-0.62-0.49-1.1-1.01-1.91-0.83-0.9 0.2-1.28 1.07-0.07 1.07"/>
			<path class="s0" d="m100.26 146.95c0.26 2.95 0.61 5.96 3.04 7.94 2.32 1.9 4.46-0.22 5.47-2.5 0.96-2.15 0.84-3.92 0.34-6.17-0.37-1.67 0.1-1.15-1.55-0.49"/>
			<path class="s0" d="m-186.03 95.99c-2.07 0.3-4.5 0.46-4.99 2.93-0.38 1.9-0.24 3.87 0.9 5.52 1.96 2.83 4.86 4.48 8.36 3.9 3.12-0.52 7.42-3.36 7.42-6.88 0-1.98-1.43-3.97-2.61-5.46-1.27-1.59-2.36-3.26-3.96-4.56-2.15-1.76-3.89-1.93-5.82 0.14-1.06 1.13-2.06 2.67-2.53 4.16-0.22 0.73-0.06 1.31-0.06 2.05 0 0.97-0.18-0.47 0-0.95"/>
			<path class="s0" d="m-175.32 101.58c1.76 1.56 3.25 2.97 6.36 3.05 2.18 0.05 4.36-0.49 6.4-1.08 1.46-0.42 6.14-2.64 2.35-2.82"/>
			<path class="s0" d="m-157.18 87.95c-2.32 2.57-5.52 7.59-4.32 11.44 0.42 1.35 1.04 2.26 1.83 3.42 1.6 2.33 4.08 1.6 6.33 1 1.63-0.45 3.57-1.83 4.19-3.41 0.87-2.18-0.93-5.59-2.43-7.09-1.67-1.68-3-3.71-4.87-5.18-0.49-0.39-0.87-0.82-1.52-0.67-0.73 0.16-1.03 0.86-0.06 0.86"/>
			<path class="s0" d="m309.64 34.44c-2.06 0.31-4.5 0.47-4.99 2.93-0.38 1.91-0.24 3.87 0.91 5.53 1.95 2.82 4.85 4.48 8.35 3.89 3.13-0.52 7.42-3.35 7.42-6.87 0-1.98-1.43-3.98-2.61-5.46-1.27-1.59-2.36-3.27-3.96-4.57-2.15-1.75-3.89-1.92-5.82 0.14-1.06 1.14-2.06 2.68-2.52 4.16-0.23 0.73-0.06 1.32-0.06 2.05 0 0.98-0.19-0.46 0-0.94"/>
			<path class="s0" d="m320.36 40.03c1.75 1.56 3.25 2.98 6.36 3.05 2.17 0.06 4.35-0.49 6.39-1.07 1.46-0.42 6.15-2.64 2.35-2.82"/>
			<path class="s0" d="m338.49 26.41c-2.32 2.56-5.52 7.59-4.32 11.43 0.43 1.36 1.04 2.27 1.83 3.43 1.61 2.32 4.09 1.6 6.34 0.99 1.63-0.44 3.56-1.83 4.19-3.41 0.86-2.18-0.94-5.58-2.44-7.09-1.67-1.67-3-3.71-4.87-5.17-0.49-0.4-0.87-0.82-1.52-0.68-0.72 0.17-1.03 0.86-0.06 0.86"/>
			<path class="s0" d="m336.52 153.68c0.75-2.28 1.16-3.86 3.33-4.95 0.8-0.41 1.39-0.6 1.83 0.27 0.59 1.16 0.36 2.72 0.15 3.96-0.5 2.9-0.42 5.91-0.81 8.84-0.29 2.21-1.11 9.51 1.85 10.5 1.15 0.38 3.58-1.28 3.43-2.6-0.07-0.6-0.34-3.27-1.56-2.42-2.11 1.47 0.55 5.75 1.3 7.51 1.6 3.71 2.83 9.49 2.43 13.56-0.21 2.09-1.29 3.65-2.6 5.16-0.87 1-2.03 4.01-3.93 3.08-1.86-0.91-3.58-3.51-3.22-5.61 0.21-1.29 0.76 0.4-0.04-1.51"/>
			<path class="s0" d="m313.14 156.14c-0.71-1.68-0.97-3.06-2.7-3.64-0.97-0.33-1.86-0.59-2.9-0.66-2.29-0.17-4.25 1.68-3.64 4.01 0.96 3.69 2.7 6.71 2.74 10.68 0.03 2.26 0.05 4.55-0.4 6.78-0.41 2.03-0.58 5.12-2.11 6.7-0.88 0.92-2.49 2.45-3.87 1.96-1.29-0.46-0.74-2.22-0.11-3.1 1.24-1.72 2.99 2.38 3.18 3.39 0.59 3.29 1.09 6.69 1.5 10.02 0.3 2.44 0.33 5.03 1.45 7.28 0.75 1.5 2.18 4.29 4.24 4.11 1.13-0.1 2.92-1.16 3.25-2.31 0.5-1.72-0.17-1.96-1.21-2.79"/>
			<path class="s0" d="m-139.26 146.18c0.55-1.66 0.85-2.81 2.43-3.61 0.58-0.3 1.01-0.43 1.33 0.2 0.43 0.84 0.26 1.98 0.11 2.88-0.36 2.11-0.3 4.31-0.59 6.44-0.21 1.62-0.81 6.94 1.35 7.66 0.84 0.28 2.6-0.94 2.5-1.89-0.05-0.44-0.25-2.39-1.13-1.77-1.55 1.07 0.39 4.19 0.94 5.47 1.17 2.71 2.06 6.92 1.77 9.89-0.16 1.52-0.94 2.66-1.9 3.76-0.63 0.72-1.48 2.92-2.86 2.24-1.35-0.66-2.61-2.55-2.35-4.09 0.16-0.93 0.56 0.3-0.02-1.1"/>
			<path class="s0" d="m-156.3 147.97c-0.52-1.22-0.71-2.23-1.96-2.66-0.72-0.24-1.36-0.42-2.12-0.47-1.67-0.13-3.09 1.22-2.65 2.92 0.7 2.69 1.96 4.89 2 7.78 0.01 1.65 0.03 3.32-0.3 4.95-0.29 1.48-0.42 3.72-1.54 4.88-0.64 0.67-1.81 1.78-2.81 1.43-0.95-0.34-0.55-1.62-0.09-2.26 0.91-1.25 2.18 1.73 2.32 2.47 0.43 2.4 0.8 4.88 1.1 7.3 0.21 1.78 0.24 3.67 1.05 5.31 0.55 1.09 1.59 3.12 3.09 2.99 0.83-0.07 2.13-0.85 2.37-1.68 0.37-1.25-0.12-1.43-0.88-2.04"/>
			<path class="s0" d="m-175.46-29.69c4.1-7.43 3.86-9.55 2.93-17.03-0.52-4.12-0.72-8.14-1.76-12.19-1.86-7.25-2.47-17.01 3.37-22.84 11.48-11.48 32.85 4.85 26.38 19.41-2.46 5.54-6.72 9.65-9.79 14.87-1.24 2.1-1.93 4.37-3.53 6.33-1.54 1.88-3.45 4.22-3.45 6.55 0 1.97 0.59 4.53-0.8 6.27-1.93 2.41-1.24 1.17-4.1 1.17-1.96 0-4.84-1.56-6.43-2.82-1.12-0.9-1.73 1.71-1.73-0.81 0-2.15 0.7-0.36-0.72-0.36"/>
			<path class="s0" d="m-166.39-22.79c-3.88-1.16-14.62-3.74-12.13-0.55 3 3.86 4.28 1.92 7.96 2.74 1.88 0.42 3.72 6.23 1.63 6.35-2.97 0.18-4.95-3.83-7.98-3.83-2.76 0-2.56 3.63-0.91 4.92 2.19 1.7 4.7-0.13 6.17 2.52 2.33 4.18-4.02 3.5-5.82 2.52-1.82-0.99-3.54-2.54-4.88-3.43"/>
			<path class="s0" d="m-175.46-30.87c0.05 0.32 0.1 2.45 0.96 2.45 0.45 0 0.66-0.28 1.08-0.04 0.5 0.27 0.96 0.91 1.43 1.29 0.42 0.33 1.65 0.29 1.88 0.71 0.39 0.67 1.18 1.04 1.91 1.12 0.95 0.11 1.3 0.59 2.31 0.36 0.31-0.07 0.34-0.26 0.63-0.26 0.45 0 0.64 0.21 0.98-0.17 0.37-0.41 0.98-0.6 1.16-1.24 0.25-0.85 1.15-1.3-0.18-0.77"/>
			<path class="s0" d="m-157.95-66.78c-1.63 0-2.97 0.11-3.52 1.83-0.38 1.17-0.38 2.32-0.38 3.54 0 1.18 0.72 2.13 0.72 3.24 0 1.47-1.17 1.23-2.17 1.68-0.94 0.42-1.62 0.78-2.13 1.72-0.51 0.94-0.12 2.75-0.06 3.77 0.06 0.88 0.48 2.74-0.13 3.48-0.33 0.41-2.13 1.03-0.95 0.15"/>
			<path class="s0" d="m-144.26-50.37c1.3 0.87 2.63 1.59 4.08 2.13 0.61 0.23 1.41 0.64 1.27-0.31"/>
			<path class="s0" d="m-139.54-62.88c2.3 0.55 4.59 1.17 6.87 1.79 0.38 0.1-0.49-0.86-0.52-0.89"/>
			<path class="s0" d="m-138.91-74.77c2.39-0.34 4.77-0.77 7.14-1.2 1.09-0.19 1.55-0.05 0.94-0.97"/>
			<path class="s0" d="m-151.78-87.37c1.88-0.33 3.51-0.65 5.22-1.5 0.79-0.4 1.56-0.88 2.39-1.2 0.99-0.39 1.02-0.27-0.09-0.93"/>
			<path class="s0" d="m-168.2-95.54c-0.28 1.93-0.19 3.08 0.59 4.83 0.42 0.94 0.78 2.12 0.99 3.14 0.07 0.35 0.11 0.55 0.34 0.81 0.09 0.1-0.23-1.07-0.29-1.25"/>
			<path class="s0" d="m-182.08-87.83c0.6 2.01 1.46 3.93 1.98 5.94 0.26 1.01 0.09 1.08-0.35 0.05"/>
			<path class="s0" d="m-187.88-73.41c2.06 1.79 3.75 4 5.35 6.19 0.2 0.28 0.43 0.37 0.65 0.6 0.51 0.5-0.36-0.64-0.47-0.8"/>
			<path class="s0" d="m25.81 216.49c4.09-7.44 3.85-9.56 2.92-17.04-0.52-4.12-0.71-8.14-1.75-12.19-1.87-7.25-2.47-17 3.36-22.84 11.48-11.48 32.86 4.85 26.38 19.41-2.46 5.55-6.72 9.65-9.79 14.88-1.24 2.09-1.93 4.37-3.53 6.33-1.54 1.88-3.45 4.21-3.45 6.55 0 1.97 0.59 4.52-0.8 6.27-1.93 2.4-1.24 1.16-4.09 1.16-1.96 0-4.85-1.55-6.43-2.82-1.13-0.9-1.74 1.71-1.74-0.8 0-2.16 0.7-0.37-0.72-0.37"/>
			<path class="s0" d="m34.88 223.38c-3.88-1.16-14.62-3.74-12.14-0.55 3 3.86 4.28 1.93 7.96 2.74 1.89 0.42 3.72 6.23 1.64 6.35-2.98 0.18-4.95-3.83-7.98-3.83-2.76 0-2.57 3.64-0.91 4.92 2.18 1.7 4.69-0.13 6.17 2.52 2.32 4.18-4.03 3.5-5.83 2.52-1.81-0.99-3.54-2.54-4.88-3.42"/>
			<path class="s0" d="m25.81 215.31c0.05 0.31 0.1 2.44 0.95 2.44 0.46 0 0.67-0.27 1.09-0.04 0.49 0.27 0.95 0.92 1.42 1.29 0.42 0.34 1.65 0.3 1.89 0.71 0.38 0.68 1.17 1.05 1.9 1.13 0.95 0.1 1.3 0.58 2.32 0.36 0.3-0.07 0.33-0.27 0.62-0.27 0.45 0 0.64 0.21 0.98-0.16 0.38-0.42 0.99-0.61 1.17-1.24 0.24-0.86 1.14-1.31-0.19-0.78"/>
			<path class="s0" d="m43.31 179.39c-1.62 0.01-2.96 0.11-3.52 1.83-0.37 1.17-0.38 2.32-0.38 3.54 0 1.18 0.73 2.13 0.73 3.25 0 1.47-1.18 1.23-2.18 1.67-0.94 0.43-1.62 0.78-2.13 1.73-0.5 0.93-0.12 2.75-0.05 3.77 0.06 0.87 0.47 2.74-0.13 3.48-0.33 0.4-2.13 1.02-0.96 0.14"/>
			<path class="s0" d="m57.01 195.81c1.3 0.86 2.62 1.58 4.07 2.13 0.61 0.23 1.41 0.63 1.28-0.32"/>
			<path class="s0" d="m61.72 183.29c2.31 0.55 4.59 1.18 6.88 1.79 0.38 0.11-0.5-0.85-0.53-0.88"/>
			<path class="s0" d="m62.36 171.41c2.38-0.35 4.76-0.78 7.13-1.2 1.09-0.2 1.56-0.05 0.94-0.98"/>
			<path class="s0" d="m49.48 158.8c1.88-0.33 3.52-0.65 5.22-1.5 0.8-0.4 1.56-0.88 2.4-1.2 0.99-0.38 1.01-0.27-0.09-0.93"/>
			<path class="s0" d="m33.06 150.64c-0.27 1.92-0.18 3.07 0.6 4.82 0.42 0.94 0.77 2.13 0.98 3.14 0.07 0.35 0.11 0.55 0.35 0.81 0.08 0.1-0.24-1.07-0.3-1.24"/>
			<path class="s0" d="m19.19 158.35c0.6 2 1.45 3.92 1.97 5.93 0.26 1.02 0.1 1.08-0.34 0.05"/>
			<path class="s0" d="m13.38 172.77c2.06 1.78 3.75 3.99 5.35 6.18 0.2 0.28 0.43 0.38 0.66 0.6 0.5 0.5-0.37-0.64-0.48-0.8"/>
			<path class="s0" d="m205.45-114.52c4.1-7.43 3.85-9.55 2.92-17.03-0.52-4.12-0.71-8.14-1.75-12.19-1.87-7.25-2.47-17.01 3.36-22.84 11.48-11.48 32.86 4.85 26.38 19.41-2.46 5.54-6.72 9.65-9.79 14.87-1.23 2.1-1.93 4.37-3.53 6.33-1.54 1.88-3.44 4.22-3.44 6.55 0 1.97 0.58 4.53-0.81 6.27-1.93 2.41-1.24 1.17-4.09 1.17-1.96 0-4.85-1.56-6.43-2.82-1.13-0.9-1.74 1.71-1.74-0.81 0-2.16 0.7-0.36-0.72-0.36"/>
			<path class="s0" d="m214.52-107.63c-3.88-1.15-14.62-3.74-12.14-0.54 3 3.86 4.28 1.92 7.96 2.74 1.89 0.42 3.72 6.23 1.64 6.35-2.98 0.18-4.95-3.83-7.99-3.83-2.75 0-2.56 3.63-0.9 4.92 2.18 1.7 4.7-0.13 6.16 2.52 2.33 4.18-4.02 3.5-5.82 2.52-1.81-0.99-3.54-2.54-4.88-3.43"/>
			<path class="s0" d="m205.45-115.7c0.05 0.32 0.1 2.45 0.95 2.45 0.46 0 0.67-0.28 1.09-0.04 0.49 0.27 0.95 0.91 1.42 1.29 0.42 0.33 1.65 0.29 1.89 0.71 0.38 0.67 1.17 1.04 1.9 1.12 0.95 0.11 1.3 0.59 2.31 0.36 0.31-0.07 0.35-0.26 0.63-0.26 0.45 0 0.64 0.21 0.98-0.17 0.38-0.41 0.99-0.61 1.17-1.24 0.24-0.85 1.14-1.3-0.19-0.77"/>
			<path class="s0" d="m222.95-151.61c-1.62 0-2.96 0.11-3.52 1.83-0.37 1.17-0.38 2.32-0.38 3.54 0 1.18 0.73 2.13 0.73 3.24 0 1.47-1.18 1.23-2.17 1.68-0.95 0.42-1.63 0.78-2.14 1.72-0.5 0.94-0.12 2.75-0.05 3.77 0.06 0.88 0.47 2.74-0.13 3.48-0.33 0.41-2.13 1.03-0.96 0.14"/>
			<path class="s0" d="m236.65-135.2c1.3 0.87 2.62 1.59 4.07 2.13 0.61 0.23 1.41 0.64 1.28-0.31"/>
			<path class="s0" d="m241.36-147.71c2.31 0.55 4.59 1.17 6.88 1.79 0.38 0.1-0.5-0.86-0.53-0.89"/>
			<path class="s0" d="m242-159.6c2.38-0.34 4.76-0.77 7.13-1.2 1.1-0.19 1.56-0.05 0.94-0.97"/>
			<path class="s0" d="m229.12-172.2c1.88-0.33 3.52-0.65 5.22-1.51 0.8-0.39 1.56-0.87 2.4-1.19 0.99-0.39 1.01-0.27-0.09-0.93"/>
			<path class="s0" d="m212.7-180.37c-0.27 1.93-0.18 3.08 0.6 4.83 0.42 0.94 0.77 2.12 0.98 3.14 0.07 0.35 0.11 0.55 0.35 0.81 0.08 0.1-0.24-1.07-0.3-1.25"/>
			<path class="s0" d="m198.82-172.66c0.61 2.01 1.47 3.93 1.98 5.94 0.26 1.01 0.1 1.08-0.34 0.05"/>
			<path class="s0" d="m193.02-158.24c2.06 1.79 3.75 4 5.35 6.19 0.2 0.28 0.43 0.37 0.66 0.6 0.5 0.5-0.37-0.64-0.48-0.8"/>
			<path class="s0" d="m-185 54.85c0.89-1.13 2.61-3.24 0.2-3.61-0.54-0.09-1.05-0.4-1.58-0.16-1.64 0.74-3.17 2.38-3.17 4.33 0 3.11 3.42 3.78 5.89 3.74 4.19-0.07 5.46-4.14 6.93-7.44 1.5-3.33 3.15-6.61 4.7-9.92 1.75-3.75 4.62-6.73 6.44-10.44 0.78-1.59 1.8-3 2.8-4.45 1.56-2.25 2.67-4.53 3.78-7.02 0.91-2.05 1.93-3.93 3.04-5.87 0.46-0.78 0.29-1.98 1.15-1.14 0.66 0.63 1.7 1.05 2.59 1.21 3.86 0.71 7.42 1.46 11.4 1.14 4.02-0.32 8.04-0.89 12.01-1.66 1.34-0.26 0.77 0.05 0.13 0.87-1.07 1.39-1.99 2.85-3.03 4.26-1.34 1.83-1.81 4.04-2.61 6.13-0.88 2.3-1.92 4.5-2.76 6.84-1.61 4.53-3.97 8.65-6.89 12.44-1.69 2.21-3.78 6.05-6.94 5.89-4.9-0.24-1.59-9.88 0.75-11.77 1.26-1.02 2.63 0.08 2.79 1.44 0.21 1.87-0.43 4.44-2.25 5.35-1.92 0.97-3.39 0.85-1.91-1.64 0.89-1.5 1.42 0.16 1.79-0.58"/>
			<path class="s0" d="m114.4 202.89c0.89-1.14 2.6-3.24 0.2-3.61-0.54-0.09-1.05-0.41-1.58-0.17-1.64 0.75-3.17 2.39-3.17 4.33 0 3.12 3.41 3.79 5.89 3.75 4.19-0.07 5.46-4.14 6.93-7.44 1.5-3.34 3.15-6.62 4.7-9.93 1.75-3.74 4.62-6.72 6.44-10.44 0.78-1.59 1.8-2.99 2.8-4.44 1.56-2.25 2.67-4.53 3.78-7.03 0.91-2.05 1.93-3.92 3.04-5.86 0.46-0.78 0.29-1.99 1.15-1.15 0.66 0.64 1.7 1.06 2.59 1.22 3.86 0.71 7.42 1.46 11.4 1.14 4.02-0.32 8.04-0.9 12.01-1.66 1.34-0.27 0.77 0.05 0.13 0.87-1.07 1.38-1.99 2.85-3.03 4.26-1.34 1.83-1.82 4.03-2.61 6.13-0.88 2.3-1.92 4.5-2.76 6.84-1.61 4.52-3.97 8.65-6.89 12.44-1.69 2.2-3.78 6.04-6.94 5.89-4.9-0.24-1.6-9.89 0.75-11.77 1.26-1.02 2.63 0.07 2.79 1.44 0.21 1.87-0.43 4.44-2.25 5.35-1.92 0.97-3.39 0.85-1.91-1.64 0.89-1.51 1.42 0.15 1.79-0.58"/>
			<path class="s0" d="m4.7-26.35c0.21-3.27 0.04-4.74-3.04-5.85-1.16-0.41-2.88-0.19-3.74 0.7-1.76 1.81-1.2 3.89-0.49 6.05 2.03 6.16 11.98 6.32 14.97 0.61 1.45-2.78 2.19-6.22 3.21-9.19 1.27-3.68 3.34-7.08 4.55-10.79 1.25-3.83 2.12-7.74 3.48-11.53 0.62-1.73 1.15-5.47 2.6-6.75 3.17-2.81 5.97 2.16 6.18 4.84 0.2 2.58 0.92 5.4 0.92 7.9 0 0.94-0.38 1.86-0.76 2.7-0.31 0.69-1.69 0.36-1.81-0.31-0.35-1.94 2.17-4.85-1.67-4.43"/>
			<path class="s0" d="m230.92 66.8c0.21-3.27 0.03-4.74-3.05-5.85-1.15-0.42-2.87-0.2-3.74 0.69-1.76 1.82-1.2 3.9-0.49 6.06 2.03 6.16 11.99 6.32 14.97 0.6 1.45-2.78 2.19-6.22 3.22-9.18 1.27-3.68 3.33-7.09 4.54-10.8 1.25-3.82 2.13-7.73 3.49-11.52 0.62-1.73 1.14-5.47 2.59-6.75 3.18-2.81 5.98 2.15 6.19 4.83 0.2 2.59 0.91 5.41 0.91 7.91 0 0.94-0.38 1.86-0.75 2.7-0.31 0.69-1.69 0.35-1.81-0.31-0.36-1.94 2.16-4.86-1.68-4.43"/>
			<path class="s0" d="m-186.58 278.04c0.21-3.27 0.03-4.74-3.05-5.85-1.15-0.41-2.87-0.19-3.73 0.7-1.77 1.81-1.2 3.89-0.49 6.05 2.03 6.16 11.98 6.32 14.96 0.6 1.45-2.77 2.2-6.22 3.22-9.18 1.27-3.68 3.33-7.08 4.55-10.79 1.24-3.83 2.12-7.74 3.48-11.53 0.62-1.73 1.14-5.47 2.59-6.75 3.18-2.81 5.98 2.15 6.19 4.83 0.2 2.59 0.92 5.41 0.92 7.91 0 0.94-0.38 1.86-0.76 2.7-0.31 0.69-1.69 0.36-1.81-0.31-0.36-1.94 2.17-4.86-1.68-4.43"/>
			<path class="s0" d="m320.81 268.79c0.12-1.88 0.02-2.73-1.8-3.37-0.68-0.24-1.7-0.11-2.21 0.4-1.04 1.05-0.71 2.25-0.29 3.49 1.2 3.56 7.08 3.65 8.85 0.35 0.85-1.6 1.29-3.59 1.89-5.3 0.75-2.12 1.98-4.08 2.69-6.22 0.74-2.21 1.26-4.47 2.06-6.65 0.37-1 0.68-3.16 1.53-3.9 1.88-1.62 3.54 1.24 3.66 2.79 0.12 1.49 0.54 3.12 0.54 4.56 0 0.54-0.23 1.07-0.45 1.56-0.18 0.4-1 0.2-1.07-0.18-0.21-1.12 1.29-2.8-0.99-2.56"/>
			<path class="s0" d="m-22.94-79.06c-1.2-3.58-1.78-9.23-6.66-8.58-1.92 0.25-3.14 0.85-4.29 2.38-3.94 5.26 5.29 12.23 7.91 4.74 2.91-8.31-1.32-13.39-3.71-21.04-1.59-5.08 2.26 10.71 5.37 15.03 0.94 1.32 3.77 6.07 5.96 5.31 4.23-1.46 2.81-11.06-1.46-12.01-4.43-0.98 0.63 9.83 1.88 11.05 4.71 4.58 12.33-5.81 9.55-10.74-0.99-1.75-3.35-2.86-4.77-0.88-1.78 2.47-0.08 5.99 1.65 7.94 1.12 1.26 2.75-2.55 2.89-3.06 0.65-2.31 0.14-3.82-1.15-5.65-1.36-1.92-0.25 0.65 0.07 1.38 0.83 1.92 1.7 4.65 3.93 5.28 3.47 0.97 6.84-4.41 7.58-7.26 0.46-1.79-1.52-6.08-3.58-6.31-1.98-0.22-2.26 5.45-1.96 6.64 0.32 1.28 0.83 4.35 2.61 4.35 2.39 0 3.02-2.78 2.74-4.68-0.79-5.34-7.43-9.8-7.43-15.53 0-2.53 3.33 3.9 4.35 6.22 1.45 3.3 3.14 6.33 4.77 9.52 3.07 6.03 4.81-0.02 3.33-3.98-1.62-4.34-4.84-10.46-8.1-13.92-0.6-0.63 2.58 2.59 3.04 3.31 2.14 3.37 3.16 7.22 4.93 10.74 1.39 2.79 6.02 10.7 7.43 3.06 0.88-4.81-3.28-8.9-3.62-13.53-0.16-2.08 0.39-0.32 1.04 0.85 1.49 2.69 2.55 5.65 3.98 8.39 0.61 1.18 1.5 2.17 2.41 3.08 1.22 1.22-1.08-3.28-1.47-4.96-0.43-1.86 1.63-10.44 4.35-6.16 1.58 2.48 1.69 9.17 4.56 3.06 0.54-1.15 0.76-11.19-1.79-10.34-2.91 0.97 2.75 10.95 4.56 12.2 5.33 3.66 5.46-9.05 5.22-10.93-0.14-1.09-0.43-6.18-2.1-6.39-2.41-0.3-0.63 6.91-0.25 7.66 1.86 3.64 6.89-2.91 9.28-2.06 3.11 1.11 1.75 7.88 0 9.84-3.35 3.74-3.56-4.8-3.12-6.58"/>
			<path class="s0" d="m6.16-112.66c1.64-0.04 3.58 0.33 4.16-1.39"/>
			<path class="s0" d="m274.8 120.54c-1.21-3.58-1.79-9.23-6.66-8.59-1.92 0.26-3.14 0.86-4.29 2.39-3.95 5.26 5.28 12.23 7.91 4.74 2.9-8.31-1.33-13.39-3.72-21.04-1.58-5.08 2.26 10.71 5.37 15.03 0.95 1.32 3.78 6.07 5.97 5.31 4.23-1.46 2.81-11.06-1.47-12.01-4.42-0.98 0.64 9.83 1.89 11.05 4.71 4.58 12.33-5.81 9.55-10.74-0.99-1.75-3.35-2.86-4.78-0.88-1.77 2.47-0.08 5.99 1.66 7.94 1.11 1.26 2.74-2.55 2.89-3.06 0.65-2.31 0.13-3.82-1.16-5.65-1.35-1.92-0.24 0.65 0.08 1.38 0.83 1.92 1.7 4.65 3.92 5.28 3.48 0.97 6.85-4.41 7.59-7.26 0.46-1.79-1.52-6.08-3.58-6.31-1.99-0.22-2.27 5.45-1.97 6.64 0.33 1.28 0.84 4.35 2.62 4.35 2.39 0 3.02-2.78 2.74-4.68-0.8-5.34-7.43-9.8-7.43-15.53 0-2.53 3.33 3.9 4.34 6.22 1.46 3.3 3.15 6.32 4.78 9.52 3.07 6.03 4.8-0.02 3.33-3.98-1.62-4.34-4.84-10.46-8.11-13.92-0.6-0.63 2.59 2.59 3.05 3.31 2.14 3.37 3.16 7.22 4.92 10.74 1.4 2.79 6.02 10.7 7.43 3.06 0.89-4.81-3.27-8.9-3.62-13.53-0.15-2.08 0.39-0.32 1.04 0.85 1.5 2.69 2.56 5.65 3.99 8.39 0.61 1.18 1.49 2.17 2.4 3.08 1.22 1.22-1.07-3.28-1.46-4.96-0.43-1.86 1.63-10.44 4.35-6.16 1.58 2.48 1.68 9.17 4.56 3.06 0.54-1.15 0.75-11.19-1.79-10.34-2.91 0.97 2.74 10.95 4.56 12.2 5.32 3.66 5.45-9.05 5.22-10.93-0.14-1.09-0.43-6.18-2.1-6.39-2.41-0.3-0.63 6.91-0.25 7.66 1.85 3.64 6.89-2.91 9.28-2.06 3.11 1.11 1.74 7.88 0 9.84-3.35 3.74-3.57-4.8-3.12-6.58"/>
			<path class="s0" d="m303.9 86.94c1.63-0.04 3.58 0.33 4.15-1.39"/>
			<path class="s0" d="m-72.24-67.22c-6.64 1.28-11.47 3.2-15.68 8.61-2.67 3.43-2.09 8.83-0.34 12.47 2.88 5.99 9.97 9.37 16.35 9.67 7.45 0.34 17.8-1.85 19.32-10.73 0.82-4.75-3.73-9.25-5.86-13.16-1.73-3.17-4.34-7.45-7.98-8.79-1.49-0.55-4.94-0.36-6.02 1.12-0.49 0.66-1.11 1.36-1.46 2.1-0.29 0.61 0.02-1.53-0.05-2.15"/>
			<path class="s0" d="m-69.44-50.87c-1.8 0.93-4.7 1.54-3.13 3.55 0.35 0.47 0.86 0.44 1.3 0 0.37-0.37 2.24-2.32 0.86-2.78-2.82-0.94-1.79 4.69 0.23 2.2 1.08-1.34-0.44-2.66-1.8-1.84-1.62 0.97-0.34 2.67 0.94 1.19 0.95-1.11 0.19-1.96-0.85-0.92-0.94 0.94 0.01 2.42 0.93 1.16 0.94-1.29-0.13-2.39-1.27-1.25-1.31 1.31 0.11 1.17 1.04 0.31 0.94-0.87-0.72-0.75-1.27-0.06-1.25 1.59 0.72 1.36 1.03 0 0.47-2-1.6 2.59-0.59-0.91"/>
			<path class="s0" d="m-76.76-57.53c1.91 2.52 3.87 4.91 5.48 7.43 0.44 0.7 0.09 1.4 0.33 1.39 0.91-0.05 1.83-0.22 2.8-0.22 2.21 0 3.94-1.07 6.07-1.07 2.58 0 6.36-0.67 2.11-2.8"/>
			<path class="s0" d="m-78.91-67.43c-0.4-2.04-2.37-6.97 1.29-6.44 1.31 0.18 2.19 1.54 2.97 2.4 2 2.23 1.79 4.92-1.46 5.11-0.85 0.05-2.05 1.74-3.01 0.54-1.09-1.36 0.02-1.27 0.21-2.9 0.13-1.07-0.57-0.98-0.87-2.03-0.23-0.81 0.25-1.69 0.44-2.28"/>
			<path class="s0" d="m-77.62-69.8c-0.02 0.52-0.81 5.15 0.87 4.39 0.57-0.26 1.06-0.62 1.28-1.21 0.22-0.57-0.01-0.9-0.26-1.46-0.64-1.42-2.5-3.64-1.94-0.43 0.36 2.03 2.63 1.55 2.8-0.38 0.13-1.48-1.73-3.46-2.92-1.77-0.83 1.19 0.66 3.83 1.53 1.98 0.45-0.93-0.61-3.32-1.74-2.15-1.16 1.2 0.58 3.73 1.72 2.7 1.13-1.01 0.36-4.09-0.86-2.91-1.12 1.07 0.56 3.22 1.41 1.58 0.95-1.83-1.14-3.21-1.79-1.29-0.58 1.7 1.23 3.54 1.65 1.21 0.32-1.77-2.94-2.71-2.94-0.59 0 1.95 1.74 1.75 1.74-0.03 0-1.85-1.86-1.43-1.09 0.12 0.78 1.56 1.82-1.2 0.95-2.08-1.02-1.02-2.38 0.56-1.17 1.54 0.82 0.67 1.94-2.11 0.56-2.63-1.19-0.44-0.53 1.99-0.12 1.44 0.64-0.85-0.34-1.42 0.33-1.26 0.6 0.15 2.05 0.47 2.45 1 0.33 0.41 1.63 2.71 1.63 3.31 0 1.82-2.8 2.81-4.4 2.35-1.15-0.33-1.49 0.49-1.09 0.22 0.98-0.66 1.19-2.36 1.19-1.71"/>
			<path class="s0" d="m-77.83-36.66c-1.11 2.34-2.1 4.71-3.4 6.93-0.29 0.5-0.84 1.52-0.91 2.1-0.17 1.57 1.41-3.74 1.73-4.52"/>
			<path class="s0" d="m-56.1-41.18c2.72 3.44 5.73 5.89 7.85 9.67 0.21 0.37 0.57 0.66 0.86 0.95 0.97 0.97-1.79-2.06-2.69-3.09"/>
			<path class="s0" d="m-48.95 109.1c-6.64 1.27-11.48 3.19-15.68 8.6-2.67 3.43-2.09 8.83-0.34 12.47 2.88 5.99 9.96 9.38 16.35 9.67 7.44 0.34 17.79-1.84 19.32-10.72 0.82-4.76-3.73-9.26-5.86-13.16-1.73-3.18-4.34-7.46-7.98-8.8-1.49-0.55-4.95-0.36-6.03 1.12-0.48 0.67-1.1 1.36-1.46 2.11-0.28 0.6 0.03-1.53-0.04-2.15"/>
			<path class="s0" d="m-46.16 125.45c-1.79 0.92-4.7 1.53-3.13 3.55 0.36 0.46 0.87 0.43 1.3 0 0.38-0.37 2.25-2.32 0.87-2.79-2.83-0.94-1.79 4.69 0.22 2.2 1.09-1.34-0.43-2.65-1.79-1.84-1.62 0.97-0.34 2.67 0.93 1.2 0.96-1.11 0.2-1.96-0.85-0.92-0.93 0.93 0.02 2.42 0.94 1.16 0.94-1.3-0.14-2.39-1.27-1.26-1.31 1.31 0.11 1.18 1.04 0.31 0.94-0.87-0.73-0.74-1.27-0.06-1.25 1.59 0.71 1.36 1.03 0 0.46-2-1.6 2.6-0.6-0.91"/>
			<path class="s0" d="m-53.47 118.78c1.91 2.52 3.87 4.91 5.47 7.43 0.45 0.7 0.09 1.4 0.34 1.39 0.9-0.05 1.83-0.22 2.79-0.22 2.21 0 3.95-1.07 6.08-1.07 2.57 0 6.36-0.67 2.1-2.8"/>
			<path class="s0" d="m-55.62 108.88c-0.4-2.03-2.37-6.96 1.29-6.44 1.31 0.19 2.19 1.54 2.96 2.4 2.01 2.23 1.8 4.93-1.46 5.12-0.85 0.05-2.05 1.74-3.01 0.54-1.09-1.37 0.02-1.27 0.22-2.91 0.12-1.07-0.57-0.98-0.88-2.03-0.22-0.81 0.25-1.69 0.45-2.27"/>
			<path class="s0" d="m-54.33 106.51c-0.02 0.52-0.81 5.15 0.87 4.39 0.56-0.25 1.05-0.62 1.28-1.21 0.22-0.56-0.01-0.9-0.26-1.45-0.65-1.43-2.51-3.65-1.94-0.43 0.36 2.02 2.62 1.55 2.8-0.39 0.13-1.48-1.73-3.46-2.92-1.77-0.84 1.2 0.66 3.83 1.53 1.99 0.44-0.94-0.62-3.32-1.74-2.15-1.16 1.19 0.58 3.72 1.72 2.7 1.12-1.01 0.36-4.09-0.86-2.92-1.12 1.08 0.56 3.22 1.41 1.58 0.95-1.83-1.15-3.21-1.8-1.29-0.58 1.71 1.23 3.55 1.65 1.22 0.32-1.78-2.94-2.72-2.94-0.6 0 1.95 1.75 1.75 1.75-0.02 0-1.86-1.87-1.44-1.09 0.11 0.78 1.56 1.82-1.2 0.94-2.07-1.02-1.03-2.37 0.55-1.17 1.54 0.82 0.67 1.94-2.12 0.57-2.63-1.2-0.45-0.54 1.98-0.12 1.43 0.64-0.85-0.35-1.42 0.33-1.25 0.6 0.15 2.04 0.46 2.45 0.99 0.32 0.41 1.63 2.71 1.63 3.31 0 1.83-2.8 2.81-4.4 2.35-1.15-0.32-1.49 0.49-1.09 0.22 0.98-0.65 1.18-2.35 1.18-1.71"/>
			<path class="s0" d="m-54.55 139.65c-1.11 2.35-2.09 4.71-3.39 6.93-0.3 0.5-0.84 1.52-0.91 2.1-0.17 1.57 1.4-3.74 1.72-4.51"/>
			<path class="s0" d="m-32.82 135.13c2.73 3.44 5.73 5.89 7.86 9.67 0.21 0.37 0.57 0.67 0.86 0.96 0.96 0.96-1.8-2.07-2.69-3.1"/>
			<path class="s0" d="m104.07-95.49c-6.64 1.27-11.47 3.19-15.68 8.6-2.67 3.43-2.08 8.83-0.33 12.47 2.88 5.99 9.96 9.38 16.35 9.67 7.44 0.34 17.79-1.85 19.32-10.72 0.81-4.76-3.73-9.26-5.86-13.16-1.73-3.18-4.34-7.46-7.99-8.8-1.49-0.55-4.94-0.36-6.02 1.12-0.48 0.67-1.11 1.36-1.46 2.11-0.28 0.6 0.02-1.54-0.05-2.15"/>
			<path class="s0" d="m106.87-79.14c-1.79 0.92-4.7 1.53-3.13 3.55 0.36 0.46 0.87 0.43 1.3 0 0.37-0.37 2.25-2.33 0.86-2.79-2.82-0.94-1.79 4.69 0.23 2.2 1.08-1.34-0.43-2.65-1.79-1.84-1.62 0.97-0.34 2.67 0.93 1.2 0.96-1.11 0.19-1.96-0.85-0.92-0.93 0.93 0.01 2.42 0.93 1.16 0.94-1.3-0.13-2.39-1.26-1.26-1.32 1.31 0.1 1.18 1.04 0.31 0.93-0.87-0.73-0.74-1.27-0.06-1.26 1.59 0.71 1.36 1.03 0 0.46-2-1.6 2.6-0.6-0.91"/>
			<path class="s0" d="m99.56-85.81c1.91 2.52 3.87 4.91 5.47 7.43 0.45 0.7 0.09 1.4 0.34 1.39 0.9-0.05 1.83-0.21 2.79-0.21 2.21 0 3.95-1.08 6.07-1.08 2.58 0 6.36-0.67 2.11-2.8"/>
			<path class="s0" d="m97.4-95.71c-0.4-2.03-2.36-6.96 1.29-6.44 1.32 0.19 2.2 1.54 2.97 2.4 2.01 2.23 1.79 4.93-1.46 5.12-0.85 0.05-2.05 1.74-3.01 0.53-1.09-1.36 0.02-1.26 0.21-2.9 0.13-1.07-0.57-0.98-0.87-2.03-0.23-0.81 0.25-1.69 0.44-2.27"/>
			<path class="s0" d="m98.69-98.08c-0.01 0.52-0.81 5.15 0.88 4.39 0.56-0.25 1.05-0.62 1.28-1.21 0.22-0.56-0.02-0.9-0.27-1.45-0.64-1.43-2.5-3.65-1.93-0.43 0.35 2.02 2.62 1.55 2.79-0.39 0.14-1.48-1.73-3.46-2.91-1.77-0.84 1.2 0.65 3.83 1.53 1.99 0.44-0.94-0.62-3.32-1.75-2.15-1.15 1.19 0.58 3.72 1.72 2.7 1.13-1.01 0.36-4.1-0.86-2.92-1.11 1.08 0.56 3.22 1.41 1.58 0.95-1.83-1.14-3.21-1.79-1.29-0.58 1.71 1.23 3.55 1.65 1.22 0.32-1.78-2.94-2.72-2.94-0.6 0 1.95 1.75 1.75 1.75-0.02 0-1.86-1.87-1.44-1.09 0.12 0.78 1.55 1.82-1.21 0.94-2.08-1.02-1.03-2.37 0.55-1.17 1.54 0.82 0.67 1.94-2.12 0.56-2.63-1.19-0.45-0.53 1.98-0.12 1.43 0.64-0.85-0.34-1.42 0.34-1.25 0.59 0.15 2.04 0.46 2.45 0.99 0.32 0.41 1.62 2.71 1.62 3.31 0 1.83-2.79 2.81-4.4 2.36-1.15-0.33-1.49 0.48-1.08 0.21 0.98-0.65 1.18-2.35 1.18-1.71"/>
			<path class="s0" d="m98.48-64.94c-1.11 2.35-2.09 4.71-3.4 6.93-0.29 0.5-0.84 1.52-0.9 2.1-0.18 1.57 1.4-3.74 1.72-4.51"/>
			<path class="s0" d="m120.21-69.46c2.73 3.44 5.73 5.89 7.85 9.67 0.21 0.37 0.58 0.67 0.86 0.96 0.97 0.96-1.79-2.07-2.68-3.1"/>
			<path class="s0" d="m-53.94 250.48c-6.65 1.28-11.47 3.19-15.69 8.61-2.66 3.43-2.08 8.83-0.33 12.46 2.88 6 9.96 9.38 16.35 9.67 7.45 0.35 17.79-1.84 19.32-10.72 0.82-4.76-3.73-9.26-5.86-13.16-1.73-3.17-4.34-7.45-7.98-8.8-1.49-0.54-4.94-0.35-6.03 1.13-0.48 0.66-1.1 1.36-1.46 2.1-0.28 0.6 0.02-1.53-0.04-2.15"/>
			<path class="s0" d="m-51.15 266.83c-1.79 0.92-4.7 1.53-3.13 3.55 0.36 0.46 0.87 0.44 1.31 0 0.37-0.37 2.24-2.32 0.86-2.78-2.83-0.95-1.8 4.69 0.22 2.2 1.09-1.34-0.43-2.66-1.79-1.85-1.62 0.98-0.34 2.67 0.93 1.2 0.96-1.11 0.2-1.96-0.85-0.92-0.93 0.93 0.02 2.42 0.94 1.16 0.94-1.29-0.14-2.39-1.27-1.26-1.31 1.32 0.11 1.18 1.04 0.32 0.94-0.88-0.73-0.75-1.27-0.06-1.25 1.58 0.71 1.36 1.03 0 0.47-2.01-1.6 2.59-0.6-0.91"/>
			<path class="s0" d="m-58.46 260.16c1.91 2.52 3.87 4.91 5.47 7.44 0.45 0.69 0.09 1.4 0.34 1.38 0.9-0.05 1.83-0.21 2.8-0.21 2.2 0 3.94-1.08 6.07-1.08 2.57 0 6.36-0.67 2.1-2.8"/>
			<path class="s0" d="m-60.61 250.26c-0.4-2.03-2.37-6.96 1.29-6.44 1.31 0.19 2.19 1.55 2.96 2.4 2.01 2.24 1.8 4.93-1.45 5.12-0.86 0.05-2.06 1.74-3.02 0.54-1.09-1.36 0.02-1.27 0.22-2.91 0.12-1.07-0.58-0.98-0.88-2.03-0.23-0.8 0.25-1.69 0.45-2.27"/>
			<path class="s0" d="m-59.32 247.9c-0.02 0.51-0.81 5.14 0.87 4.39 0.57-0.26 1.05-0.63 1.28-1.21 0.22-0.57-0.01-0.91-0.26-1.46-0.64-1.43-2.51-3.64-1.94-0.43 0.36 2.03 2.62 1.55 2.8-0.38 0.13-1.48-1.73-3.46-2.92-1.77-0.84 1.19 0.66 3.83 1.53 1.98 0.45-0.94-0.62-3.32-1.74-2.15-1.16 1.2 0.58 3.72 1.72 2.7 1.12-1.01 0.36-4.09-0.86-2.92-1.12 1.08 0.56 3.22 1.41 1.58 0.95-1.83-1.14-3.2-1.8-1.29-0.58 1.71 1.23 3.55 1.65 1.22 0.32-1.77-2.94-2.72-2.94-0.6 0 1.96 1.75 1.76 1.75-0.02 0-1.85-1.87-1.44-1.09 0.12 0.78 1.55 1.82-1.21 0.95-2.08-1.03-1.02-2.38 0.56-1.18 1.54 0.82 0.67 1.94-2.11 0.56-2.63-1.19-0.44-0.53 1.99-0.11 1.44 0.64-0.86-0.35-1.43 0.33-1.26 0.6 0.15 2.04 0.47 2.45 0.99 0.32 0.42 1.63 2.72 1.63 3.31 0 1.83-2.8 2.82-4.4 2.36-1.15-0.33-1.49 0.48-1.09 0.21 0.98-0.65 1.18-2.35 1.18-1.71"/>
			<path class="s0" d="m-59.54 281.03c-1.11 2.35-2.09 4.71-3.39 6.94-0.29 0.5-0.85 1.52-0.91 2.1-0.17 1.57 1.4-3.74 1.72-4.52"/>
			<path class="s0" d="m-37.81 276.51c2.73 3.44 5.73 5.9 7.86 9.67 0.21 0.38 0.57 0.67 0.86 0.96 0.96 0.97-1.8-2.06-2.69-3.1"/>
			<path class="s0" d="m-272.49-84.88c6.33 0.26 13.2-0.13 19.5-0.9 3.37-0.42 6.77-0.51 10.11-1.02 0.47-0.07 1.97-0.79 2.2-0.17 0.38 0.97 0.46 2.37 0.41 3.39-0.13 2.99 0.24 6.25 0.89 9.16 0.51 2.31 0.9 4.23 0.9 6.61 0 1.29 0.69 3.43-0.11 4.45-2.22 2.85-7.09 4.02-10.46 4.87-4.96 1.26-9.87 2.57-15 2.84-3.18 0.18-6.24-0.46-9.38-0.46-2.89 0-2.62-0.06-3.63-2.8-1-2.7-1.14-5.13-1.14-8.03 0-1.51-0.66-3.17-1.07-4.63-0.31-1.1 0.19-2.46 0.35-3.56 0.16-1.16 1.9-3.83 1.32-4.88-0.58-1.03-0.88-2.8 0.06-3.74 0.77-0.77 12.11-1.69 1.72 0.53"/>
			<path class="s0" d="m-277.72-82.03c1.32 1.77 2.36 3.88 3.7 5.59 0.44 0.57 1.5 1.06 1.77 1.66 0.72 1.63 4.89 3.06 6.42 4.05 1.73 1.11 5.28 6.01 7.73 3.56 4.6-4.59 9.33-9.09 13.91-13.67 0.86-0.87 1.16-2.01 1.95-2.8 2.41-2.41-1.59-2.19-2.9-2.19"/>
			<path class="s0" d="m21.92 84.78c6.33 0.26 13.2-0.13 19.5-0.9 3.37-0.42 6.77-0.51 10.11-1.02 0.47-0.07 1.97-0.79 2.2-0.17 0.38 0.97 0.46 2.37 0.41 3.39-0.13 2.99 0.24 6.25 0.89 9.16 0.51 2.31 0.9 4.24 0.9 6.61 0 1.29 0.69 3.42-0.11 4.45-2.22 2.85-7.09 4.02-10.46 4.87-4.96 1.26-9.87 2.57-15 2.84-3.18 0.18-6.24-0.46-9.38-0.46-2.89 0-2.62-0.06-3.63-2.8-1-2.7-1.14-5.13-1.14-8.03 0-1.51-0.66-3.16-1.07-4.63-0.31-1.1 0.19-2.46 0.35-3.56 0.16-1.16 1.9-3.83 1.32-4.88-0.58-1.03-0.88-2.79 0.06-3.74 0.77-0.77 12.11-1.7 1.72 0.53"/>
			<path class="s0" d="m16.69 87.63c1.32 1.77 2.36 3.88 3.7 5.59 0.44 0.57 1.5 1.06 1.77 1.66 0.72 1.63 4.89 3.06 6.42 4.05 1.73 1.11 5.28 6.01 7.73 3.56 4.6-4.6 9.33-9.09 13.91-13.67 0.86-0.87 1.16-2.01 1.95-2.8 2.41-2.41-1.59-2.2-2.9-2.2"/>
			<path class="s0" d="m-87.86 3.27c6.33 0.27 13.2-0.12 19.5-0.9 3.37-0.41 6.77-0.5 10.11-1.01 0.47-0.08 1.97-0.79 2.2-0.17 0.38 0.97 0.46 2.36 0.41 3.39-0.13 2.99 0.24 6.24 0.89 9.16 0.51 2.31 0.9 4.23 0.9 6.6 0 1.3 0.69 3.43-0.11 4.45-2.22 2.86-7.09 4.02-10.46 4.88-4.96 1.26-9.87 2.56-15 2.84-3.18 0.17-6.24-0.46-9.38-0.46-2.89 0-2.62-0.06-3.63-2.8-1-2.7-1.14-5.13-1.14-8.04 0-1.51-0.66-3.16-1.07-4.62-0.3-1.11 0.19-2.46 0.35-3.57 0.16-1.16 1.9-3.82 1.32-4.87-0.58-1.03-0.88-2.8 0.06-3.74 0.77-0.77 12.11-1.7 1.72 0.53"/>
			<path class="s0" d="m-93.09 6.13c1.32 1.77 2.36 3.87 3.7 5.59 0.44 0.56 1.5 1.06 1.77 1.66 0.72 1.63 4.89 3.06 6.42 4.04 1.73 1.11 5.28 6.02 7.73 3.57 4.6-4.6 9.33-9.09 13.91-13.67 0.86-0.87 1.16-2.01 1.95-2.81 2.41-2.4-1.59-2.19-2.9-2.19"/>
			<path class="s0" d="m-239.22 231.15c6.32 0.27 13.19-0.12 19.5-0.9 3.37-0.41 6.77-0.5 10.1-1.02 0.47-0.07 1.97-0.79 2.21-0.17 0.38 0.98 0.45 2.37 0.41 3.4-0.13 2.98 0.24 6.24 0.88 9.15 0.52 2.31 0.9 4.24 0.9 6.61 0 1.3 0.69 3.43-0.1 4.45-2.22 2.85-7.09 4.02-10.47 4.88-4.96 1.25-9.87 2.56-14.99 2.84-3.18 0.17-6.24-0.46-9.38-0.46-2.89 0-2.62-0.06-3.63-2.81-1-2.7-1.14-5.13-1.14-8.03 0-1.51-0.67-3.16-1.07-4.62-0.31-1.11 0.18-2.46 0.34-3.57 0.17-1.16 1.91-3.82 1.32-4.88-0.57-1.03-0.87-2.79 0.07-3.73 0.77-0.77 12.11-1.7 1.72 0.52"/>
			<path class="s0" d="m-244.46 234c1.32 1.78 2.37 3.88 3.7 5.59 0.45 0.57 1.51 1.06 1.77 1.67 0.73 1.62 4.89 3.06 6.43 4.04 1.72 1.11 5.28 6.01 7.72 3.57 4.6-4.6 9.34-9.1 13.92-13.68 0.86-0.86 1.16-2.01 1.95-2.8 2.41-2.4-1.6-2.19-2.91-2.19"/>
			<path class="s0" d="m-277.58 3.17c11.92-5.67 21.55-15.06 31.24-23.92 7.62-6.95 15.6-13.83 24-19.83 1.66-1.19 4-3.57 6.24-2.56 2.23 1.01 3.51 3.75 5.26 5.38 4.32 3.99 8.21 8.88 11.77 13.58 3.91 5.17-1.96 8.03-5.59 11.42-4.12 3.85-8.05 7.81-12.55 11.21-4.28 3.22-7.72 7.67-11.63 11.32-5.97 5.57-11.55 11.5-17.5 17.07-3.54 3.31-7.61 6.02-11.02 9.46-1.2 1.2-2.3 2.79-3.68 3.79-1.11 0.81-2.64-2.29-3.03-2.87-3.13-4.63-7.98-7.79-11.04-12.63-1.93-3.04-3.22-6.8-5.53-9.58-1.1-1.32-3.85-4.31-2.65-6.25 1.24-1.98 4.73-2.92 6.64-4.34 1.48-1.11 3.29-2.47 4.98-3.24 1.23-0.56 2.44-1.55 3.54-2.31 2.89-2-0.18-1.15-2.13-0.4"/>
			<path class="s0" d="m-275.76 12.26c7.26 4.49 13.77 10.99 19.43 17.4 0.14 0.16 1.52 1.12 1.31 1.48-0.4 0.68-5.11-2.42-5.56-2.73"/>
			<path class="s0" d="m-268.56 5.76c5.88 1.69 9.38 4.89 14.13 8.32 2.12 1.53 4.27 2.91 6.17 4.7 0.89 0.85 1.53 1.96 2.35 2.87 1.13 1.24-3.48-1.45-4.02-1.76"/>
			<path class="s0" d="m-260.02 0.73c4.12 3.71 8.26 7.38 12.5 10.94 1.61 1.36 3.44 2.6 4.84 4.2 2.47 2.83-0.77-0.85-1.87-1.88"/>
			<path class="s0" d="m-254.25-2.81c3.05 1.85 6.24 3.65 8.83 6.16 1.06 1.02 1.94 2.23 3.07 3.18 1.4 1.18 2.62 2.54 4.03 3.68 2 1.62 2.3 2.1-0.08 0.06"/>
			<path class="s0" d="m-246.82-8.26c3.37 2.63 6.49 5.31 9.31 8.53 1.24 1.42 2.25 3.06 3.83 4.16 1.45 1 2.47 1.29 0.77-0.34"/>
			<path class="s0" d="m-239.66-13.82c2.97 2.23 5.89 4.26 8.26 7.13 1.09 1.32 1.94 2.83 3.15 4.04 2.46 2.46 0.77 1.22-1.01-0.45"/>
			<path class="s0" d="m-233.06-19.58c4.17 3.98 7.65 8.65 11.83 12.58 2.8 2.65-1.22-1.6-1.88-2.35"/>
			<path class="s0" d="m-225-24.16c3.51-1.43 7.14-3.14 9.03-6.64 0.52-0.96 1.19-1.8 1.4-2.89 0.29-1.49 0.24-0.85-0.87 0.12"/>
			<path class="s0" d="m-219.35-19.35c2.78-2.58 5.88-5.4 7.92-8.67 1.01-1.63 2.95-3.62 0.24-1.26"/>
			<path class="s0" d="m-210.45-13.95c2.54-2.75 4.79-5.31 7.12-8.18 0.75-0.93 3.05-2.14 0.29-1.4"/>
			<path class="s0" d="m-212.46-15.34c2.65-2.27 5.65-4.91 7.75-7.78 0.56-0.76 0.99-1.62 1.5-2.41 0.86-1.33 0.91-0.88-0.39-0.75"/>
			<path class="s0" d="m-268.6 16.84c13.2-5.36 16.46-19.91 27.22-28.15 1.3-1 2.37-2.11 3.89-2.8 1.02-0.47 2.28-0.69 3.21-1.28 0.57-0.36 5.27-3.96 2-2.47"/>
			<path class="s0" d="m-274.75 12.95c1.48-1.8 2.8-3.34 4.68-4.64 0.3-0.22 0.78-0.25 1.03-0.54 0.51-0.56 1.27-1.39 1.46-2.12 0.76-2.87 4.49-2.34 6.47-3.78 1.88-1.37 3.69-2.76 5.61-4.11 2.11-1.49 3.09-2.8 4.79-4.71 1.55-1.76 3.07-3.53 4.72-5.2 1.35-1.35 3.47-2.59 4.33-4.33 0.97-1.96 3.45-4.21 5.68-3.85 0.76 0.13 6.4 3.39 2.71 1.3"/>
			<path class="s0" d="m-95.25 85.78c1.48-1.8 2.79-3.34 4.67-4.65 0.31-0.21 0.79-0.25 1.04-0.53 0.5-0.57 1.26-1.39 1.46-2.12 0.76-2.87 4.48-2.34 6.46-3.78 1.88-1.37 3.69-2.76 5.61-4.12 2.11-1.49 3.09-2.79 4.79-4.71 1.56-1.75 3.07-3.52 4.72-5.19 1.35-1.36 3.47-2.59 4.33-4.33 0.97-1.97 3.45-4.21 5.68-3.85 0.77 0.12 6.4 3.39 2.72 1.3"/>
			<path class="s0" d="m-262.8 19.97c9.92-5.23 15.42-16.64 22.12-25.26 2.47-3.17 6-5.28 8.58-8.4 1.11-1.34 3.55-2.75 0.71-2.73"/>
			<path class="s0" d="m-259.26 23.2c8.99-5.52 14.74-15.8 21.28-23.95 2.98-3.71 5.85-7.5 8.86-11.17 1.38-1.68 3.77-2.73 0.7-1.01"/>
			<path class="s0" d="m-255.72 28.97c5.61-5.47 10.14-11.37 14.73-17.7 2.79-3.85 5.2-8.17 8.48-11.64 1.88-1.98 3.33-4.31 5.03-6.42 0.69-0.85 1.17-1.84 1.87-2.68 1.59-1.9 0.48-0.18-0.62 0.85"/>
			<path class="s0" d="m-254.4 31.37c2.79-2.74 6.88-5.37 8.74-8.91 0.68-1.29 2.35-4.4 3.53-5.19 1.55-1.04 2.29-3.26 3.41-4.65 1.18-1.45 2.33-2.87 3.61-4.25 1.19-1.29 1.58-3.57 3.06-4.68 1.65-1.24 2.45-3.16 3.77-4.64 1.13-1.29 3.3-2.61 4.72-3.59 0.78-0.55 1.33-1.29 2.21-1.69 1.8-0.82 0.64-0.4-1.01-0.46"/>
			<path class="s0" d="m-225.22-23.14c2.31 0.61 5.15 1.03 7.26 2.29 1.36 0.81 2.54 1.62 0.07 0.14"/>
			<path class="s0" d="m-222.82-26.99c3.29 0.86 5.62 1.82 8.3 3.57 1.76 1.15 1.48 0.83-0.35-0.27"/>
			<path class="s0" d="m-218.83-30.88c2.83 1.59 5.57 3.39 8.5 4.78 1.72 0.82 0.82 0.76-0.51 0.12"/>
			<path class="s0" d="m-216.55-33.99c2.97 1.35 5.71 2.7 8.45 4.4 1.25 0.78 0.12 0.83-0.83 0.2"/>
			<path class="s0" d="m-223.76-24.49c2.24-2.67 4.5-5.21 6.54-7.95 0.59-0.77 4.13-5.1 2.6-2.89"/>
			<path class="s0" d="m-221.4-19.8c2.92-2.59 7.13-6.04 8.08-9.9 0.28-1.13 0.88-2.27 1.76-3.05 0.9-0.79 1.83-1.15 0.5 0.19"/>
			<path class="s0" d="m-223.75-19.89c3.12-3.36 5.79-5.62 7.55-9.75 0.45-1.08 0.98-1.97 1.73-2.81 0.8-0.9 1.94-1.74 0.4-0.13"/>
			<path class="s0" d="m-212.16-18.24q2.14 1.37 4.36 2.51c0.62 0.32-0.14-0.29-0.4-0.39"/>
			<path class="s0" d="m-209.37-22.74c0.1 0.09 5.75 4.92 4.74 3.84"/>
			<path class="s0" d="m-206.01-24.49c1.24 1.2 5.05 4.7 3.71 3.62"/>
			<path class="s0" d="m-213.83-16.33c2.06-1.92 6.59-5.73 7.7-8.68 0.43-1.16 2.43-2.66 0.55-1.06"/>
			<path class="s0" d="m-213.57-15.75c0.19 0.15 4.14 4.4 4.98 2.34 0.43-1.05 0.99-2.42 2.05-3 1.84-1.02 2.19-4.22 4.08-5.08 2.14-0.98 1.94-2.61-0.06-3.19-0.78-0.23-0.16-1.78-0.98-1.66-0.74 0.12-1.14-0.16-1.97-0.01"/>
			<path class="s0" d="m-225.48-23.71c1.35 2.58 1.61 3.52 3.79 4.6 0.59 0.29 1.36-0.11 1.81 0.11 0.88 0.45 2.63 0.46 3.29-0.35 1.33-1.64 1.82-2.7 3.86-3.7 1.28-0.63 2.31-2.11 2.91-3.34 0.65-1.36 1.83-2.38 2.51-3.73 0.3-0.58-2.07-2.07-2.09-3.07-0.01-0.29-2.82-0.29-3.29-0.53-0.57-0.29-0.83-0.7-1.1-1.29-0.4-0.88-1.1 0.21-2.17 0.29"/>
			<path class="s0" d="m-272.35 9.1c3.2 1.21 5.98 2.78 8.86 4.51 2.5 1.51 5.32 2.31 7.81 3.77 1.76 1.04 3.6 3.41 4.9 4.97 0.44 0.52 0.76 1 1.07 1.59 0.71 1.34-0.03-1.91-0.1-2.26"/>
			<path class="s0" d="m-241.48-15.29c0.89 0.93 4.48 6.07 3.77 2.2"/>
			<path class="s0" d="m-129.54 216.13c11.92-5.68 21.55-15.06 31.24-23.92 7.61-6.95 15.6-13.83 24-19.83 1.66-1.19 4-3.57 6.24-2.56 2.22 1.01 3.5 3.75 5.26 5.38 4.32 3.99 8.21 8.88 11.76 13.58 3.91 5.17-1.95 8.03-5.58 11.42-4.12 3.85-8.06 7.81-12.56 11.21-4.27 3.22-7.71 7.67-11.63 11.32-5.96 5.57-11.54 11.5-17.5 17.07-3.54 3.32-7.6 6.02-11.01 9.46-1.2 1.2-2.31 2.79-3.68 3.8-1.11 0.8-2.64-2.3-3.04-2.88-3.12-4.63-7.97-7.79-11.03-12.63-1.93-3.04-3.23-6.8-5.53-9.58-1.1-1.32-3.85-4.31-2.65-6.25 1.23-1.98 4.73-2.92 6.63-4.34 1.49-1.11 3.3-2.47 4.99-3.24 1.23-0.56 2.43-1.55 3.53-2.31 2.89-2-0.17-1.15-2.13-0.4"/>
			<path class="s0" d="m-127.72 225.22c7.25 4.49 13.76 10.99 19.43 17.4 0.14 0.16 1.52 1.12 1.31 1.48-0.41 0.68-5.12-2.41-5.57-2.73"/>
			<path class="s0" d="m-120.53 218.72c5.88 1.69 9.39 4.89 14.14 8.32 2.11 1.53 4.27 2.91 6.17 4.7 0.89 0.85 1.52 1.96 2.35 2.87 1.13 1.24-3.48-1.45-4.03-1.76"/>
			<path class="s0" d="m-111.98 213.69c4.11 3.71 8.25 7.38 12.5 10.94 1.61 1.36 3.44 2.6 4.83 4.2 2.48 2.83-0.76-0.85-1.86-1.88"/>
			<path class="s0" d="m-106.21 210.15c3.05 1.85 6.24 3.65 8.82 6.16 1.06 1.02 1.94 2.23 3.08 3.18 1.39 1.18 2.62 2.54 4.02 3.68 2.01 1.62 2.31 2.1-0.07 0.06"/>
			<path class="s0" d="m-98.78 204.7c3.37 2.63 6.49 5.31 9.3 8.53 1.25 1.42 2.26 3.07 3.84 4.16 1.45 1 2.47 1.29 0.77-0.34"/>
			<path class="s0" d="m-91.62 199.14c2.97 2.23 5.89 4.27 8.26 7.14 1.08 1.31 1.94 2.82 3.15 4.03 2.46 2.46 0.77 1.22-1.01-0.45"/>
			<path class="s0" d="m-85.02 193.38c4.16 3.98 7.65 8.65 11.82 12.58 2.81 2.65-1.21-1.59-1.87-2.35"/>
			<path class="s0" d="m-76.96 188.8c3.5-1.44 7.14-3.14 9.02-6.64 0.52-0.96 1.19-1.8 1.41-2.89 0.29-1.49 0.23-0.85-0.87 0.12"/>
			<path class="s0" d="m-71.32 193.61c2.78-2.58 5.89-5.4 7.92-8.67 1.02-1.63 2.95-3.62 0.25-1.26"/>
			<path class="s0" d="m-62.41 199.01c2.53-2.75 4.79-5.31 7.12-8.18 0.75-0.93 3.04-2.14 0.28-1.4"/>
			<path class="s0" d="m-64.42 197.62c2.65-2.27 5.64-4.91 7.74-7.78 0.56-0.76 0.99-1.62 1.51-2.41 0.86-1.33 0.91-0.88-0.39-0.75"/>
			<path class="s0" d="m-120.57 229.81c13.21-5.37 16.46-19.92 27.22-28.15 1.31-1.01 2.37-2.12 3.9-2.81 1.02-0.47 2.28-0.69 3.21-1.28 0.57-0.36 5.27-3.96 2-2.47"/>
			<path class="s0" d="m-126.71 225.91c1.48-1.8 2.79-3.34 4.67-4.64 0.31-0.22 0.79-0.25 1.04-0.54 0.5-0.56 1.26-1.39 1.46-2.12 0.76-2.87 4.48-2.34 6.46-3.78 1.88-1.37 3.7-2.76 5.61-4.11 2.12-1.49 3.09-2.8 4.79-4.71 1.56-1.76 3.07-3.53 4.72-5.19 1.36-1.36 3.48-2.6 4.33-4.34 0.97-1.96 3.45-4.21 5.69-3.85 0.76 0.13 6.39 3.39 2.71 1.31"/>
			<path class="s0" d="m52.78 298.74c1.48-1.8 2.8-3.34 4.68-4.65 0.31-0.21 0.78-0.25 1.04-0.53 0.5-0.57 1.26-1.39 1.45-2.12 0.76-2.88 4.49-2.34 6.47-3.78 1.88-1.37 3.69-2.76 5.61-4.11 2.11-1.5 3.09-2.8 4.79-4.71 1.56-1.76 3.07-3.54 4.72-5.2 1.35-1.36 3.47-2.59 4.33-4.33 0.97-1.97 3.45-4.21 5.68-3.85 0.77 0.13 6.4 3.39 2.72 1.3"/>
			<path class="s0" d="m-114.77 232.93c9.92-5.23 15.43-16.64 22.13-25.26 2.47-3.17 6-5.28 8.58-8.4 1.1-1.34 3.55-2.75 0.71-2.73"/>
			<path class="s0" d="m-111.22 236.16c8.98-5.52 14.74-15.8 21.28-23.95 2.98-3.71 5.85-7.49 8.86-11.17 1.37-1.68 3.77-2.72 0.7-1.01"/>
			<path class="s0" d="m-107.68 241.93c5.61-5.47 10.14-11.37 14.72-17.7 2.8-3.85 5.21-8.17 8.49-11.63 1.88-1.99 3.32-4.32 5.03-6.43 0.69-0.85 1.16-1.84 1.87-2.68 1.59-1.89 0.48-0.18-0.63 0.85"/>
			<path class="s0" d="m-106.36 244.33c2.79-2.74 6.88-5.37 8.74-8.91 0.68-1.29 2.35-4.4 3.52-5.19 1.55-1.04 2.29-3.26 3.42-4.65 1.18-1.45 2.33-2.87 3.6-4.25 1.2-1.29 1.58-3.57 3.06-4.68 1.65-1.24 2.46-3.16 3.77-4.64 1.14-1.29 3.31-2.62 4.72-3.59 0.79-0.55 1.33-1.29 2.22-1.69 1.8-0.82 0.63-0.4-1.01-0.46"/>
			<path class="s0" d="m-77.19 189.82c2.31 0.61 5.16 1.03 7.26 2.29 1.36 0.81 2.55 1.62 0.07 0.15"/>
			<path class="s0" d="m-74.79 185.97c3.3 0.86 5.62 1.82 8.31 3.57 1.76 1.15 1.48 0.83-0.35-0.27"/>
			<path class="s0" d="m-70.79 182.08c2.83 1.59 5.57 3.4 8.5 4.78 1.72 0.82 0.81 0.76-0.51 0.12"/>
			<path class="s0" d="m-68.52 178.97c2.98 1.35 5.72 2.7 8.46 4.41 1.25 0.77 0.11 0.82-0.83 0.19"/>
			<path class="s0" d="m-75.73 188.47c2.25-2.67 4.51-5.21 6.55-7.95 0.58-0.77 4.12-5.1 2.59-2.89"/>
			<path class="s0" d="m-73.37 193.16c2.93-2.59 7.14-6.03 8.09-9.9 0.27-1.13 0.88-2.27 1.76-3.05 0.89-0.79 1.83-1.15 0.49 0.18"/>
			<path class="s0" d="m-75.71 193.07c3.12-3.36 5.78-5.62 7.54-9.75 0.46-1.08 0.98-1.97 1.74-2.81 0.79-0.9 1.93-1.74 0.4-0.13"/>
			<path class="s0" d="m-64.13 194.72q2.14 1.37 4.37 2.51c0.62 0.32-0.15-0.29-0.41-0.39"/>
			<path class="s0" d="m-61.33 190.23c0.1 0.08 5.74 4.91 4.74 3.84"/>
			<path class="s0" d="m-57.98 188.47c1.25 1.2 5.06 4.7 3.72 3.62"/>
			<path class="s0" d="m-65.79 196.63c2.06-1.92 6.58-5.73 7.69-8.68 0.44-1.16 2.44-2.66 0.56-1.06"/>
			<path class="s0" d="m-65.53 197.21c0.19 0.15 4.14 4.4 4.98 2.34 0.43-1.05 0.99-2.42 2.04-3 1.85-1.02 2.19-4.22 4.08-5.08 2.15-0.98 1.95-2.61-0.05-3.19-0.78-0.23-0.16-1.78-0.98-1.65-0.75 0.11-1.14-0.17-1.98-0.02"/>
			<path class="s0" d="m-77.45 189.25c1.36 2.58 1.61 3.52 3.8 4.6 0.59 0.29 1.36-0.11 1.8 0.11 0.89 0.45 2.64 0.46 3.3-0.35 1.33-1.64 1.82-2.7 3.85-3.7 1.29-0.63 2.32-2.11 2.91-3.34 0.66-1.36 1.83-2.38 2.52-3.73 0.3-0.58-2.07-2.07-2.1-3.07 0-0.28-2.82-0.29-3.28-0.53-0.57-0.29-0.83-0.69-1.1-1.3-0.4-0.87-1.11 0.22-2.18 0.3"/>
			<path class="s0" d="m-124.31 222.06c3.19 1.21 5.98 2.78 8.86 4.51 2.5 1.51 5.32 2.31 7.8 3.77 1.77 1.04 3.61 3.41 4.91 4.97 0.43 0.52 0.76 1 1.07 1.59 0.7 1.34-0.03-1.9-0.11-2.26"/>
			<path class="s0" d="m-93.44 197.67c0.88 0.93 4.47 6.07 3.76 2.2"/>
			<path class="s0" d="m33.47 294.26c11.91-5.68 21.55-15.07 31.23-23.92 7.62-6.96 15.6-13.84 24.01-19.84 1.65-1.18 4-3.57 6.24-2.55 2.22 1 3.5 3.75 5.25 5.37 4.33 4 8.21 8.88 11.77 13.58 3.91 5.17-1.96 8.04-5.58 11.42-4.12 3.85-8.06 7.82-12.56 11.21-4.28 3.23-7.71 7.67-11.63 11.33-5.97 5.56-11.55 11.49-17.5 17.06-3.54 3.32-7.61 6.03-11.02 9.46-1.19 1.21-2.3 2.79-3.68 3.8-1.1 0.8-2.64-2.29-3.03-2.88-3.13-4.62-7.97-7.79-11.04-12.63-1.92-3.04-3.22-6.8-5.53-9.57-1.1-1.33-3.85-4.32-2.64-6.25 1.23-1.98 4.72-2.93 6.63-4.35 1.49-1.1 3.29-2.47 4.98-3.24 1.23-0.55 2.44-1.54 3.54-2.31 2.89-2-0.17-1.14-2.13-0.4"/>
			<path class="s0" d="m35.29 303.34c7.25 4.49 13.76 10.99 19.42 17.4 0.15 0.16 1.53 1.12 1.31 1.48-0.4 0.69-5.11-2.41-5.56-2.72"/>
			<path class="s0" d="m42.48 296.85c5.88 1.68 9.39 4.89 14.14 8.31 2.11 1.53 4.27 2.91 6.16 4.71 0.9 0.84 1.53 1.95 2.35 2.86 1.13 1.25-3.48-1.45-4.02-1.76"/>
			<path class="s0" d="m51.03 291.81c4.11 3.72 8.25 7.38 12.49 10.95 1.62 1.35 3.45 2.6 4.84 4.19 2.47 2.83-0.76-0.84-1.86-1.88"/>
			<path class="s0" d="m56.79 288.27c3.06 1.86 6.25 3.66 8.83 6.16 1.06 1.03 1.94 2.24 3.07 3.19 1.4 1.17 2.62 2.54 4.03 3.68 2 1.62 2.3 2.09-0.08 0.06"/>
			<path class="s0" d="m64.23 282.82c3.37 2.64 6.48 5.31 9.3 8.53 1.25 1.42 2.25 3.07 3.84 4.16 1.45 1 2.46 1.29 0.76-0.34"/>
			<path class="s0" d="m71.38 277.27c2.97 2.22 5.89 4.26 8.26 7.13 1.09 1.31 1.94 2.82 3.16 4.04 2.46 2.46 0.76 1.21-1.01-0.45"/>
			<path class="s0" d="m77.99 271.5c4.16 3.99 7.65 8.65 11.82 12.58 2.81 2.65-1.22-1.59-1.87-2.35"/>
			<path class="s0" d="m86.05 266.92c3.5-1.43 7.14-3.14 9.02-6.63 0.52-0.97 1.19-1.81 1.4-2.89 0.3-1.5 0.24-0.86-0.87 0.11"/>
			<path class="s0" d="m91.69 271.73c2.78-2.58 5.88-5.39 7.92-8.67 1.02-1.63 2.95-3.62 0.25-1.26"/>
			<path class="s0" d="m100.6 277.14c2.53-2.75 4.78-5.31 7.11-8.19 0.76-0.93 3.05-2.14 0.29-1.4"/>
			<path class="s0" d="m98.58 275.75c2.65-2.27 5.65-4.92 7.75-7.79 0.56-0.76 0.99-1.61 1.5-2.41 0.86-1.33 0.92-0.88-0.39-0.74"/>
			<path class="s0" d="m42.44 307.93c13.2-5.37 16.46-19.92 27.22-28.15 1.31-1 2.37-2.12 3.9-2.81 1.02-0.46 2.28-0.68 3.21-1.28 0.56-0.36 5.27-3.95 2-2.47"/>
			<path class="s0" d="m36.29 304.04c1.48-1.81 2.8-3.35 4.68-4.65 0.31-0.22 0.78-0.25 1.04-0.54 0.5-0.56 1.26-1.39 1.45-2.12 0.77-2.87 4.49-2.34 6.47-3.78 1.88-1.37 3.69-2.76 5.61-4.11 2.11-1.49 3.09-2.8 4.79-4.71 1.56-1.75 3.07-3.53 4.72-5.19 1.35-1.36 3.47-2.6 4.33-4.34 0.97-1.96 3.45-4.21 5.68-3.84 0.77 0.12 6.4 3.38 2.72 1.3"/>
			<path class="s0" d="m48.24 311.06c9.92-5.24 15.43-16.65 22.13-25.26 2.47-3.18 5.99-5.29 8.58-8.41 1.1-1.33 3.54-2.75 0.7-2.73"/>
			<path class="s0" d="m51.78 314.29c8.99-5.53 14.75-15.81 21.29-23.96 2.97-3.71 5.85-7.49 8.86-11.17 1.37-1.67 3.76-2.72 0.69-1.01"/>
			<path class="s0" d="m55.32 320.05c5.61-5.47 10.14-11.37 14.73-17.7 2.79-3.84 5.2-8.17 8.48-11.63 1.88-1.99 3.33-4.32 5.04-6.42 0.68-0.85 1.16-1.84 1.87-2.69 1.59-1.89 0.48-0.18-0.63 0.85"/>
			<path class="s0" d="m56.64 322.45c2.79-2.73 6.88-5.36 8.75-8.91 0.67-1.29 2.35-4.4 3.52-5.19 1.55-1.04 2.29-3.25 3.42-4.65 1.17-1.45 2.32-2.87 3.6-4.25 1.2-1.29 1.58-3.56 3.06-4.68 1.65-1.24 2.45-3.16 3.77-4.64 1.14-1.28 3.31-2.61 4.72-3.59 0.78-0.54 1.33-1.28 2.22-1.69 1.8-0.81 0.63-0.4-1.02-0.46"/>
			<path class="s0" d="m85.82 267.94c2.31 0.61 5.16 1.03 7.26 2.29 1.36 0.81 2.54 1.63 0.07 0.15"/>
			<path class="s0" d="m88.22 264.09c3.29 0.86 5.62 1.82 8.31 3.58 1.75 1.14 1.47 0.82-0.36-0.28"/>
			<path class="s0" d="m92.21 260.2c2.83 1.59 5.58 3.4 8.5 4.78 1.72 0.82 0.82 0.76-0.51 0.12"/>
			<path class="s0" d="m94.49 257.09c2.97 1.36 5.72 2.71 8.46 4.41 1.24 0.78 0.11 0.83-0.84 0.2"/>
			<path class="s0" d="m87.28 266.59c2.25-2.67 4.5-5.2 6.55-7.94 0.58-0.78 4.12-5.11 2.59-2.89"/>
			<path class="s0" d="m89.64 271.28c2.92-2.58 7.14-6.03 8.08-9.89 0.28-1.14 0.88-2.28 1.77-3.06 0.89-0.79 1.83-1.15 0.49 0.19"/>
			<path class="s0" d="m87.3 271.19c3.11-3.36 5.78-5.61 7.54-9.75 0.46-1.07 0.98-1.96 1.73-2.81 0.8-0.89 1.94-1.73 0.4-0.13"/>
			<path class="s0" d="m98.88 272.85q2.14 1.37 4.37 2.51c0.61 0.31-0.15-0.3-0.41-0.39"/>
			<path class="s0" d="m101.68 268.35c0.09 0.08 5.74 4.92 4.74 3.84"/>
			<path class="s0" d="m105.03 266.6c1.24 1.19 5.06 4.7 3.72 3.61"/>
			<path class="s0" d="m97.21 274.76c2.06-1.93 6.59-5.73 7.7-8.69 0.44-1.16 2.44-2.65 0.55-1.06"/>
			<path class="s0" d="m97.47 275.33c0.2 0.16 4.15 4.41 4.99 2.35 0.43-1.06 0.98-2.43 2.04-3.01 1.85-1.01 2.19-4.22 4.08-5.08 2.15-0.97 1.95-2.61-0.05-3.19-0.79-0.22-0.17-1.77-0.98-1.65-0.75 0.11-1.15-0.17-1.98-0.01"/>
			<path class="s0" d="m85.56 267.37c1.35 2.59 1.61 3.52 3.79 4.6 0.59 0.29 1.36-0.11 1.81 0.12 0.89 0.45 2.64 0.46 3.29-0.36 1.33-1.64 1.82-2.7 3.86-3.69 1.28-0.64 2.31-2.12 2.91-3.35 0.65-1.35 1.83-2.37 2.52-3.73 0.29-0.58-2.08-2.07-2.1-3.07-0.01-0.28-2.82-0.29-3.29-0.53-0.56-0.29-0.83-0.69-1.1-1.29-0.39-0.88-1.1 0.21-2.17 0.29"/>
			<path class="s0" d="m38.69 300.18c3.2 1.21 5.99 2.78 8.86 4.52 2.5 1.5 5.33 2.3 7.81 3.76 1.77 1.04 3.6 3.41 4.91 4.97 0.43 0.52 0.76 1 1.06 1.59 0.71 1.34-0.02-1.9-0.1-2.26"/>
			<path class="s0" d="m69.56 275.79c0.89 0.93 4.48 6.07 3.77 2.21"/>
			<path class="s0" d="m276.31-141.54c11.92-5.68 21.55-15.06 31.24-23.92 7.61-6.95 15.6-13.83 24-19.83 1.66-1.19 4-3.57 6.24-2.56 2.22 1.01 3.51 3.75 5.26 5.38 4.32 3.99 8.21 8.88 11.77 13.58 3.91 5.17-1.96 8.03-5.59 11.42-4.12 3.85-8.05 7.81-12.55 11.21-4.28 3.22-7.72 7.67-11.63 11.32-5.97 5.57-11.55 11.5-17.5 17.07-3.55 3.31-7.61 6.02-11.02 9.46-1.2 1.2-2.3 2.79-3.68 3.79-1.11 0.81-2.64-2.29-3.03-2.87-3.13-4.63-7.98-7.79-11.04-12.63-1.93-3.04-3.22-6.8-5.53-9.58-1.1-1.33-3.85-4.31-2.64-6.25 1.23-1.98 4.72-2.93 6.63-4.34 1.48-1.11 3.29-2.47 4.98-3.24 1.23-0.56 2.44-1.55 3.53-2.31 2.9-2-0.17-1.15-2.12-0.4"/>
			<path class="s0" d="m278.13-132.45c7.26 4.49 13.77 10.99 19.43 17.4 0.14 0.16 1.52 1.12 1.31 1.48-0.4 0.68-5.11-2.42-5.56-2.73"/>
			<path class="s0" d="m285.33-138.95c5.88 1.69 9.38 4.89 14.13 8.32 2.12 1.53 4.27 2.91 6.17 4.7 0.89 0.85 1.53 1.96 2.35 2.87 1.13 1.24-3.48-1.45-4.02-1.76"/>
			<path class="s0" d="m293.87-143.98c4.12 3.71 8.26 7.38 12.5 10.94 1.61 1.36 3.45 2.6 4.84 4.2 2.47 2.83-0.77-0.85-1.87-1.88"/>
			<path class="s0" d="m299.64-147.52c3.05 1.85 6.24 3.65 8.83 6.16 1.06 1.02 1.94 2.23 3.07 3.18 1.4 1.18 2.62 2.54 4.03 3.68 2 1.62 2.3 2.1-0.08 0.06"/>
			<path class="s0" d="m307.08-152.97c3.36 2.63 6.48 5.31 9.3 8.53 1.25 1.42 2.25 3.06 3.83 4.16 1.45 1 2.47 1.29 0.77-0.34"/>
			<path class="s0" d="m314.23-158.53c2.97 2.23 5.89 4.27 8.26 7.14 1.09 1.31 1.94 2.82 3.15 4.03 2.46 2.46 0.77 1.22-1.01-0.45"/>
			<path class="s0" d="m320.83-164.29c4.17 3.98 7.66 8.65 11.83 12.58 2.81 2.65-1.22-1.59-1.88-2.35"/>
			<path class="s0" d="m328.89-168.87c3.51-1.44 7.14-3.14 9.03-6.64 0.52-0.96 1.19-1.8 1.4-2.89 0.29-1.49 0.23-0.85-0.87 0.12"/>
			<path class="s0" d="m334.54-164.06c2.78-2.58 5.88-5.4 7.92-8.67 1.01-1.63 2.95-3.62 0.24-1.26"/>
			<path class="s0" d="m343.45-158.66c2.53-2.75 4.78-5.31 7.11-8.18 0.75-0.93 3.05-2.14 0.29-1.4"/>
			<path class="s0" d="m341.43-160.05c2.65-2.27 5.65-4.91 7.75-7.78 0.56-0.76 0.99-1.62 1.5-2.41 0.86-1.33 0.92-0.88-0.39-0.75"/>
			<path class="s0" d="m285.29-127.87c13.2-5.36 16.46-19.91 27.21-28.14 1.31-1.01 2.38-2.12 3.9-2.81 1.02-0.47 2.28-0.69 3.21-1.28 0.57-0.36 5.27-3.96 2-2.47"/>
			<path class="s0" d="m279.14-131.76c1.48-1.8 2.8-3.34 4.68-4.64 0.31-0.22 0.78-0.25 1.03-0.54 0.51-0.57 1.27-1.39 1.46-2.12 0.76-2.87 4.49-2.34 6.47-3.78 1.88-1.37 3.69-2.76 5.61-4.11 2.11-1.49 3.09-2.8 4.78-4.71 1.56-1.76 3.08-3.53 4.73-5.19 1.35-1.36 3.47-2.6 4.33-4.34 0.97-1.96 3.45-4.21 5.68-3.85 0.76 0.13 6.39 3.39 2.72 1.3"/>
			<path class="s0" d="m291.09-124.74c9.92-5.23 15.42-16.64 22.12-25.26 2.47-3.17 6-5.28 8.58-8.4 1.11-1.34 3.55-2.75 0.71-2.73"/>
			<path class="s0" d="m294.63-121.51c8.99-5.52 14.74-15.8 21.28-23.95 2.98-3.71 5.85-7.49 8.86-11.17 1.38-1.68 3.77-2.72 0.7-1.01"/>
			<path class="s0" d="m298.17-115.74c5.61-5.47 10.14-11.37 14.73-17.7 2.79-3.85 5.2-8.17 8.48-11.64 1.88-1.98 3.33-4.31 5.03-6.42 0.69-0.85 1.17-1.84 1.87-2.68 1.59-1.89 0.48-0.18-0.63 0.85"/>
			<path class="s0" d="m299.49-113.34c2.79-2.74 6.88-5.37 8.74-8.92 0.68-1.28 2.35-4.39 3.52-5.18 1.56-1.04 2.29-3.26 3.42-4.65 1.18-1.45 2.33-2.87 3.61-4.25 1.19-1.29 1.58-3.57 3.06-4.68 1.65-1.24 2.45-3.16 3.77-4.64 1.13-1.29 3.3-2.62 4.72-3.59 0.78-0.55 1.33-1.29 2.21-1.69 1.8-0.82 0.63-0.4-1.01-0.46"/>
			<path class="s0" d="m328.67-167.85c2.31 0.61 5.15 1.03 7.26 2.29 1.36 0.81 2.54 1.62 0.07 0.14"/>
			<path class="s0" d="m331.07-171.7c3.29 0.86 5.62 1.82 8.3 3.57 1.76 1.15 1.48 0.83-0.35-0.27"/>
			<path class="s0" d="m335.06-175.59c2.83 1.59 5.57 3.4 8.5 4.78 1.72 0.82 0.82 0.76-0.51 0.12"/>
			<path class="s0" d="m337.34-178.7c2.97 1.35 5.71 2.7 8.45 4.4 1.25 0.78 0.12 0.83-0.83 0.2"/>
			<path class="s0" d="m330.13-169.2c2.24-2.68 4.5-5.21 6.54-7.95 0.59-0.77 4.13-5.11 2.6-2.89"/>
			<path class="s0" d="m332.49-164.51c2.92-2.59 7.13-6.03 8.08-9.9 0.28-1.13 0.88-2.27 1.76-3.05 0.9-0.79 1.83-1.15 0.5 0.18"/>
			<path class="s0" d="m330.14-164.6c3.12-3.36 5.78-5.62 7.55-9.75 0.45-1.08 0.98-1.97 1.73-2.81 0.8-0.9 1.94-1.74 0.4-0.13"/>
			<path class="s0" d="m341.73-162.95q2.14 1.37 4.36 2.51c0.62 0.32-0.14-0.29-0.4-0.39"/>
			<path class="s0" d="m344.52-167.44c0.1 0.08 5.75 4.91 4.74 3.84"/>
			<path class="s0" d="m347.88-169.2c1.24 1.2 5.05 4.7 3.71 3.62"/>
			<path class="s0" d="m340.06-161.04c2.06-1.92 6.59-5.73 7.7-8.68 0.43-1.16 2.43-2.66 0.55-1.06"/>
			<path class="s0" d="m340.32-160.46c0.19 0.15 4.14 4.4 4.98 2.34 0.43-1.05 0.99-2.42 2.05-3 1.84-1.02 2.18-4.22 4.08-5.08 2.15-0.98 1.94-2.61-0.05-3.19-0.79-0.23-0.17-1.78-0.99-1.65-0.74 0.11-1.14-0.17-1.97-0.02"/>
			<path class="s0" d="m328.41-168.42c1.35 2.58 1.61 3.52 3.79 4.6 0.59 0.29 1.36-0.11 1.81 0.11 0.88 0.45 2.63 0.46 3.29-0.35 1.33-1.64 1.82-2.7 3.85-3.7 1.29-0.63 2.32-2.11 2.92-3.34 0.65-1.36 1.82-2.38 2.52-3.73 0.29-0.58-2.08-2.07-2.1-3.07-0.01-0.29-2.82-0.29-3.29-0.53-0.57-0.29-0.83-0.7-1.1-1.3-0.4-0.87-1.1 0.22-2.17 0.3"/>
			<path class="s0" d="m281.54-135.61c3.19 1.21 5.98 2.78 8.86 4.51 2.5 1.51 5.32 2.31 7.81 3.77 1.76 1.04 3.6 3.41 4.9 4.97 0.44 0.52 0.76 1 1.07 1.59 0.71 1.34-0.03-1.91-0.1-2.26"/>
			<path class="s0" d="m312.41-160c0.88 0.93 4.47 6.06 3.77 2.2"/>
			<path class="s0" d="m-254.97 152.73c7.62-0.79 15.2-2.1 22.81-2.74 3.36-0.28 6.59-0.33 9.95-0.37 0.66-0.01 5.13-1.18 5.49-0.35 0.43 1.03 0.1 2.96 0.24 4.08 0.27 2.08 0.73 4.07 0.9 6.17 0.19 2.44 1.66 7.94-1.17 9.41-1.76 0.91-3.85 1.64-5.76 2.11-2.35 0.59-4.71 1.62-7.09 1.98-3.11 0.46-6.29 1.27-9.4 1.49-2.13 0.14-4.11 0.51-6.14 1.18-3.01 0.99-6.53 1.12-9.64 1.12-1.31 0-2.6 0.11-3.9 0.13-0.9 0.01-2.05 0.53-2.92 0.2-1.86-0.73-1.91-4.58-2.25-6.15-0.7-3.32-1.55-6.61-1.94-9.99-0.14-1.18-0.62-3.37 0.19-4.42 1.56-1.99 4.57-1.99 6.83-2.7 0.97-0.3 1.83-0.75 2.78-1.02 2.15-0.62-0.71-0.45-1.69-0.27"/>
			<path class="s0" d="m-263.36 159.09c5.55-0.83 11.28-1.78 20.29-4.6 2.21-0.69 5.05-0.93 7.36-1.09 2.13-0.15 4.22-0.57 6.3-0.27 2.53 0.36 5.37-1.48 7.79-0.26 2.56 1.27 2.9 5.53 2.9 8.03 0 1.18 0.54 2.31 0.54 3.49 0 0.84-0.28 2.8-1.08 3.25-1.46 0.8-2.93 2.05-4.61 2.39-1.65 0.33-3.78-0.57-5.28-0.05-3.04 1.07-6.4 1.59-9.59 1.95-3.14 0.35-5.94 0.45-8.96 1.52-2.73 0.98-5.66 0.66-8.49 1.06-0.78 0.11-2.59 1.11-3.08 0.13-0.44-0.89-0.34-1.94-0.74-2.84-0.48-1.09-1.02-3.4-1.99-4.12-0.84-0.64-1.28-2.19-1.22-3.18 0.05-0.93-0.14-1.68-0.14-2.57 0-0.36-0.19-0.7-0.26-1.02-0.1-0.43 0.37-0.66 0.25-1.07-0.15-0.54 2.18 0.28 2.58 0.74 0.57 0.65 0.8 1.6 1.32 2.29 0.6 0.79 1.41 1.99 1.79 2.87 0.71 1.64 1.36 3.38 1.36 5.17 0 0.93 0.19 2.18 1.35 2.24 0.68 0.04 0.85 1.16 0.94-0.4 0.01-0.12-0.03-0.98 0.28-0.75 0.18 0.13-0.32-2.27-0.4-2.5-0.54-1.51-0.55-3.4-1.3-4.8-0.64-1.19-2.49-5-1.31-6.19 0.13-0.12 0.85 0.05 1.18-0.1 0.3-0.13 0.56-0.68 0.81-0.68 0.23 0 1.02-0.03 1.15-0.2 0.18-0.22 0.29 0.67 0.3 0.74 0.13 0.65 0.5 1.28 0.71 1.9 1.04 2.99 1.97 5.47 1.97 8.71 0 1.33 0.01 2.53 0.64 3.73 0.23 0.43 1.1 0.33 1.08 0.3-0.18-0.24 0.61-0.29 0.71-0.58 0.49-1.45-0.48-3.02-0.96-4.37-0.72-1.99-1.07-4.15-1.68-6.18-0.29-0.97-0.46-2.01-0.33-3.04 0.05-0.39 0.18-1.36 0.54-1.58 1.24-0.76 1.37 0.15 2.19 1.42 1.67 2.58 2.85 5.18 4.04 8.04 0.68 1.62 1.47 3.43 1.88 5.15 0.12 0.5 0.61 1.83 1.15 1.17 0.87-1.06 0.05-2.97-0.41-4.05-1.52-3.53-3.3-6.53-2.29-10.44 0.3-1.19 0.59-2.32 1.01-3.47 0.23-0.62 1.28 1.31 1.29 1.34 0.67 1.53 1.31 3.12 1.75 4.73 0.68 2.43 1.92 4.5 3.33 6.57 1.11 1.62 2.66 1.52 2.54-0.92-0.17-3.15-2.75-5.73-2.82-8.97-0.02-0.6-0.42-1.87 0.07-2.36 0.81-0.81 1.84 0.69 2.21 1.21 1.05 1.43 1.84 2.79 2.44 4.48 0.59 1.64 0.77 3.42 1.53 4.99 0.53 1.08 1.67 2.99 2.81 3.56 0.54 0.27 0.65-1.11 0.68-1.3 0.24-1.73-0.45-3.05-1.16-4.58-0.88-1.9-2.39-4.76-1.88-6.97 0.34-1.47 0.94-1.54 2.03-0.49 1.81 1.75 2.68 5.6 3.57 7.94 0.42 1.1 0.76 2.3 1.9 2.86 1.25 0.61 1.67-1.29 1.59-2.15-0.21-2.49-2.09-4.72-3.18-6.92-0.55-1.08-1.77-2.45-0.92-3.68 0.08-0.11 6.5 0.26 1.95 2.26-4.37 1.92-9.54 2.8-14.19 3.79-2.5 0.53-4.88 1.17-7.28 2.04-1.95 0.7-3.87 0.68-5.89 0.95-2.34 0.32-4.28 1.55-6.56 2.01-1.21 0.24-2.56 0.38-3.66 0.99-0.34 0.19-1.23 1.12-1.22 1.55 0.09 4.12 6.99 1.6 9.12 0.99 5.85-1.68 11.9-2.96 17.62-5.09 2.47-0.92 4.7-2.44 7.26-3.09 1.31-0.34 8.71-0.87 6.08 2.48-2.25 2.88-6.67 2.68-9.95 3.36-4.73 0.97-9.11 1.43-13.67 3.14-1.7 0.63-3.32 1.2-4.97 1.95-1.28 0.58-2.57 0.33-3.92 0.45-0.31 0.03-5.09 0.53-3.89 1.7 2.93 2.84 8.54-0.3 11.5-1.34 2.17-0.76 4.47-0.98 6.67-1.62 2.19-0.64 4.3-1.48 6.48-2.15 3.42-1.05 6.78-2.75 10.22-3.62 0.67-0.17 1.59-0.4 2.29-0.37 0.17 0.01 0.49-0.07 0.06-0.05-1.5 0.08-3.04 0.44-4.52 0.66"/>
			<path class="s0" d="m200.78 107.82c7.62-0.79 15.21-2.1 22.82-2.74 3.35-0.27 6.59-0.33 9.94-0.37 0.66-0.01 5.14-1.18 5.49-0.35 0.43 1.03 0.11 2.96 0.25 4.08 0.26 2.08 0.72 4.07 0.89 6.17 0.19 2.44 1.67 7.94-1.17 9.41-1.75 0.91-3.85 1.63-5.76 2.11-2.35 0.59-4.7 1.62-7.09 1.98-3.1 0.46-6.28 1.27-9.4 1.49-2.13 0.14-4.11 0.52-6.14 1.18-3 0.99-6.52 1.11-9.63 1.11-1.31 0-2.61 0.12-3.91 0.14-0.89 0.01-2.05 0.53-2.92 0.2-1.86-0.73-1.91-4.58-2.24-6.15-0.71-3.32-1.55-6.61-1.95-9.99-0.14-1.18-0.62-3.37 0.2-4.42 1.55-1.99 4.56-1.99 6.83-2.7 0.96-0.3 1.82-0.75 2.77-1.02 2.15-0.62-0.7-0.45-1.68-0.27"/>
			<path class="s0" d="m192.39 114.18c5.56-0.83 11.28-1.78 20.29-4.6 2.21-0.69 5.06-0.93 7.37-1.09 2.12-0.15 4.21-0.57 6.3-0.27 2.52 0.36 5.36-1.48 7.78-0.27 2.56 1.29 2.9 5.54 2.9 8.04 0 1.18 0.54 2.32 0.54 3.49 0 0.84-0.28 2.8-1.08 3.25-1.45 0.81-2.93 2.05-4.61 2.39-1.64 0.33-3.77-0.57-5.27-0.05-3.05 1.07-6.4 1.59-9.6 1.95-3.13 0.35-5.93 0.45-8.95 1.52-2.74 0.98-5.67 0.66-8.5 1.06-0.78 0.11-2.59 1.1-3.08 0.13-0.44-0.89-0.33-1.94-0.73-2.84-0.49-1.09-1.02-3.4-1.99-4.12-0.85-0.64-1.28-2.19-1.23-3.18 0.05-0.92-0.14-1.68-0.14-2.57 0-0.36-0.19-0.7-0.26-1.02-0.09-0.43 0.38-0.66 0.26-1.07-0.16-0.54 2.17 0.28 2.57 0.74 0.57 0.65 0.8 1.6 1.33 2.29 0.59 0.79 1.4 1.99 1.79 2.87 0.7 1.64 1.35 3.38 1.35 5.17 0 0.93 0.19 2.18 1.35 2.24 0.68 0.04 0.86 1.16 0.95-0.4 0.01-0.12-0.04-0.98 0.27-0.75 0.18 0.13-0.32-2.27-0.4-2.5-0.53-1.51-0.54-3.4-1.3-4.8-0.64-1.19-2.49-5-1.31-6.18 0.13-0.13 0.86 0.03 1.18-0.11 0.3-0.13 0.56-0.68 0.81-0.68 0.23 0 1.02-0.03 1.15-0.2 0.18-0.22 0.29 0.67 0.3 0.75 0.13 0.64 0.5 1.26 0.72 1.89 1.03 2.99 1.96 5.48 1.96 8.72 0 1.32 0.01 2.52 0.65 3.72 0.22 0.43 1.1 0.33 1.08 0.3-0.19-0.24 0.61-0.29 0.7-0.58 0.49-1.45-0.47-3.03-0.96-4.37-0.71-1.99-1.07-4.15-1.67-6.18-0.3-0.97-0.47-2.01-0.33-3.04 0.05-0.39 0.17-1.36 0.53-1.58 1.24-0.76 1.37 0.15 2.19 1.42 1.67 2.58 2.85 5.18 4.05 8.04 0.67 1.62 1.46 3.43 1.88 5.15 0.11 0.5 0.61 1.83 1.15 1.17 0.86-1.06 0.04-2.97-0.42-4.05-1.51-3.54-3.29-6.53-2.29-10.44 0.3-1.18 0.6-2.32 1.01-3.47 0.23-0.62 1.28 1.3 1.3 1.34 0.66 1.53 1.3 3.12 1.75 4.73 0.68 2.43 1.91 4.5 3.32 6.56 1.11 1.63 2.66 1.53 2.54-0.91-0.16-3.15-2.75-5.73-2.82-8.97-0.01-0.6-0.41-1.87 0.08-2.36 0.81-0.81 1.83 0.69 2.2 1.21 1.05 1.44 1.84 2.79 2.45 4.48 0.58 1.64 0.76 3.42 1.52 4.98 0.53 1.09 1.67 3 2.81 3.57 0.54 0.27 0.65-1.11 0.68-1.3 0.24-1.73-0.45-3.05-1.16-4.58-0.87-1.9-2.39-4.76-1.88-6.96 0.35-1.48 0.95-1.55 2.03-0.5 1.82 1.75 2.68 5.6 3.57 7.94 0.42 1.1 0.76 2.3 1.9 2.86 1.26 0.61 1.67-1.29 1.6-2.15-0.22-2.49-2.09-4.72-3.19-6.91-0.54-1.09-1.77-2.46-0.92-3.69 0.08-0.11 6.5 0.26 1.95 2.26-4.37 1.92-9.53 2.8-14.19 3.79-2.49 0.53-4.88 1.17-7.28 2.04-1.95 0.7-3.87 0.68-5.88 0.95-2.35 0.32-4.29 1.55-6.56 2.01-1.22 0.24-2.57 0.38-3.67 0.99-0.34 0.19-1.23 1.12-1.22 1.55 0.09 4.12 6.99 1.61 9.13 0.99 5.84-1.68 11.89-2.96 17.61-5.09 2.47-0.92 4.7-2.44 7.27-3.09 1.31-0.34 8.7-0.87 6.07 2.48-2.25 2.88-6.67 2.68-9.94 3.36-4.74 0.97-9.12 1.42-13.68 3.14-1.7 0.63-3.32 1.2-4.97 1.95-1.27 0.58-2.57 0.32-3.91 0.45-0.31 0.03-5.1 0.54-3.89 1.7 2.93 2.84 8.53-0.3 11.49-1.34 2.17-0.76 4.47-0.98 6.67-1.62 2.19-0.64 4.31-1.48 6.48-2.15 3.42-1.05 6.78-2.75 10.22-3.62 0.68-0.17 1.6-0.4 2.29-0.37 0.17 0.01 0.49-0.07 0.06-0.05-1.49 0.08-3.03 0.44-4.51 0.66"/>
			<path class="s0" d="m4.56 195.55c-0.04 0.42-0.9 7.33-1.25 6.55-0.06-0.14-2.23 6.16-2.54 7.05-1.32 3.76-2.51 8.58-4.37 12.09-1.71 3.24-3.77 6.98-5.19 10.58-0.64 1.61-1.43 3.34-2.36 4.8-1.06 1.67 0.21-2.01 0.32-2.61"/>
			<path class="s0" d="m79.71-25.51c-5.28-1.37-10.24-1.72-14.19 2.68-0.69 0.76-2.44 2.89-2.22 4.08 1 5.51 4.72 6 9.71 5.46 5.19-0.57 11.03-4.81 10.54-10.74-0.22-2.57-0.34-4-3.28-4.79-1.32-0.35-2.92-0.23-4.05 0.59-0.85 0.62 0.33-0.04 0.58-0.2"/>
			<path class="s0" d="m147.73-105.43c1.27-3.65 2.23-7.66 3.79-11.17 0.14-0.31 0.98-2.13 1.27-2.13 1.25 0 1.05 7.94 1.35 9.32 1.17 5.24 0.27 3.97 4.12 0.7 1.91-1.62 14.57-7.23 9.69-2.01-2.99 3.2-7.07 6.44-11.12 8.24-0.64 0.28 1.42 1.02 1.76 1.45 1.19 1.48 2.17 3.1 3.26 4.66 2.81 4.06-2.5 1.29-4.45 0.42-1.9-0.86-4.31-1.32-5.88-2.74-0.27-0.25-1.26-1.72-1.26-1.27 0 5.81-0.86 6.97-5.06 10.54-2.94 2.49-1.95-6.4-1.78-7.26 0.35-1.76 0.97-3.28 1.57-4.96 0.24-0.67 1.67-2.01 0.96-1.92-3.79 0.47 0.23 4.79-5.41 1.26-6.79-4.24-4.43-12.1 2.93-6.32 2.12 1.67 1.82 4.14 4.45 4.9 3.17 0.9 0.47-1.66-0.61-3.82"/>
			<path class="s0" d="m164.58 17.6c1.53-0.76 9.47-6.49 7.35-1.66-0.68 1.56-1.86 3.3-3.04 4.52-1.93 2-3.62 10.5 0.23 6.93 1.5-1.38 5.17-9.64 7.68-7.26 3.58 3.39-0.45 4.84-2.74 6.11-3.3 1.84-2.67 7.73 1.48 5.06 1.54-0.99 4.87-5.51 6.53-2.53 1.74 3.14-4.37 5.08-3.98 8.24 0.3 2.4 2.53 1.22 3.77 0.49 0.78-0.46-0.26-2.34 0.42-3.46"/>
			<path class="s0" d="m115.28 37.83c-1.54 1.7-9.98 9.13-4.21 11.49 1.38 0.57 3.2-1.29 3.79-2.41 1.24-2.34 1.42-7.09-2.53-6.53-2.71 0.39-2.91 7.46-0.51 7.37 4.06-0.15 2.74-8.76 0.75-4.61-3.61 7.54 2.82 3.66 0.51 1.1-1.14-1.27-3.14 8.55 0.73 3.87 3.88-4.7-3.42-4.92-1.8-0.07 1.27 3.82 2.98-7.68 0.14-0.96-2.47 5.83 2.2-1.24 0.79-0.73-2.67 0.97-3.36 6.04-0.79 0.75 1.65-3.39-4.12 1.64-2.53 1.64 1.5 0 4.27-5.12 1.36-2.9-2.97 2.25 1.82-1.16 2.17-2.74 0.19-0.86-2.67 3.24-0.82 0.11 0.97-1.63-0.22-0.12-0.63 0.52-0.98 1.53 0.15-1.03 0.4-1.2 0.48-0.31-0.58 1.05-0.61 1.62-0.09 1.59 0.35-0.85 0.42-1.26"/>
			<path class="s0" d="m-28.4 66.06c3.96-0.02 8.3 0.81 11.38-2.11 0.74-0.7 1.26-1.15 1.77 0 1.31 2.9 1.6 6.74 1.6 9.88 0 1.17-7.53 1.08-9.27 1.08-0.81 0-3.41 1.13-4.12 0.33-0.6-0.68 2.04-3.56 1.38-4.75-0.68-1.22-0.42-2-2.09-2.3-2.52-0.46 2-1.71-0.65-1.71"/>
			<path class="s0" d="m-104.25 124.21c-0.65 4.22-2.94 10.17-2.94 14.51 0 1.52 2.77-1.7 3.76-2.69 2.67-2.66 7.74-3.14 10.14-6.13 1.49-1.87-2.79-2.36-5.06-3.49-2.13-1.07-3.31-2.5-5.47-1.78"/>
			<path class="s0" d="m-119.84 93.45c-2.41 4.77-5.87 10.53-1.47 15.31 2.61 2.84 5.97 0.53 8.54-0.98 4.28-2.52 5.52-8.45 1.55-11.94-2.44-2.15-4.38-1.83-6.93-2.91-2.29-0.96-2.08 2.18-0.42 0.52"/>
			<path class="s0" d="m139.3-157.26c1.51-4.34 2.34-10.23 7.91-10.35 1.72-0.04 3.5 0.93 4.54 2.25 1.8 2.27 1.08 5.8-0.23 8.1-1.7 2.99-7.72 3.87-1.36 1.26 3.68-1.5 6.42 1.62 6.42 5.39 0 9.34-9.26 9.26-14.23 3.04-2.97-3.7-2.63-6.9-2.63-10.96"/>
			<path class="s0" d="m166.69 107.78c-0.58 5.59-3.42 22.04-3.79 16.43-0.16-2.32-5.8-8.16-7.54-10.09-4.01-4.45 5.35 0.53 6.74 1.03 1.28 0.46 9.04 5.42 10.07 3.91 1.61-2.37 2.85-14.66-1.48-14.66-1.74 0-1.89 3.57-1.89 4.85 0 0.1-3.07 0.25-2.53-1.9"/>
			<path class="s0" d="m172.17 216.91c0.5-1.11 7.2-16.05 10.02-8.34 0.96 2.64-2.39 6.08-3.51 8.34-2.44 4.86 1.9 9.57 5.9 4.84 1.54-1.83 2.23-8.05-1.36-6.86-1.5 0.5-6.38-0.62-7.17 0-6.43 5.15-2.98-10.03 1.6-5.78 2.6 2.42 2.28 7.93 3.04 11.17 0.4 1.7 1.27 3.36 2.2 4.82 0.33 0.52-2.18-5-2.72-6.09"/>
			<path class="s0" d="m83.68 216.07c-3.91 18 9.85 1.12 3.09-2.18-4.79-2.35-12.62 5.68-6.01 8.4 5.16 2.13 4.66-8.19-0.03-5.26-4.01 2.51-1.18 10.31 1.99 3.48 2.33-5-3.66-1.92-2.13 1.36 2.81 6.03 7.57-9.67 2.25-4.35-5.62 5.61 8.19 4.13 5.71-1.27-1.97-4.29-8.22 9.55-3 5.76 5.5-3.98 1.92-9.66-1.96-3.6-5.02 7.82 11.05 0.61 3.39-1.83-7.19-2.29-5.63 10.48-1.61 6.46 5.98-5.98-2.6-9.83-3.28-4.05-0.57 4.86 5.76-0.09 1.78-2.22-1.64-0.88-4.33 3.47-3.61 3.3 0.97-0.23 4.07-4.19 3.66-4.24-0.7-0.08-1.9 1.32-2.51 1.66-0.14 0.08 0.7-0.64 1.66-0.49 2.8 0.45 0.52 2.1-1.5 1.59"/>
			<path class="s0" d="m97.17 178.56c-1.18 3.62-2.34 10.62-5.48 11.8"/>
			<path class="s0" d="m86.63 181.51q6.6 4.31 13.2 8.62c0.58 0.38 2.04 1.78 1.69 1.19-0.61-1.02-1.19-2.05-1.83-3.06"/>
			<path class="s0" d="m90.42 176.04c0.96 4.17 1.61 8.69 3.14 12.73 0.76 2.01 2.28 3.62 3 5.62 0.98 2.73-1.92-0.99-2.34-1.5"/>
			<path class="s0" d="m82.84 186.15c8.3 0.96 14.14 0.2 21.63-3.16 2.54-1.14 1.94-1.9-0.56-1.9"/>
			<path class="s0" d="m-25.45 4.54c6.08-1.76 9.87-2.95 15.8-2.95 2.75 0 1.89-1.69 0.12 1.69-1.27 2.4-3.12 4.82-4.78 6.95-0.75 0.97-1.31 4.25-1.96 4.75-0.31 0.24-2.22-2.66-2.65-2.85-1.44-0.64-2.59-2-4.17-2.48-0.97-0.3-7.57-1.9-7-2.25 2.35-1.47 3.53-1.04 6.11-1.62 4.46-0.99 2.55-0.66-1.47-0.4"/>
			<path class="s0" d="m-28.4-24.53c-1.2 4.87-2.62 9.35-4.54 13.9-1.23 2.91 1.36-0.09 2.85-0.42 4.5-1 9.63-3.48 13.91-5.38 1.91-0.85-4.2-5.91-5.69-7.07-2.57-2-4.85-1.87-7.79-1.87"/>
			<path class="s0" d="m-111.83-22.43c-5.33 7.3-5.42 7.9 1.66 11.15 2.88 1.31 6.59 0.81 8.78-1.55 4.53-4.86 0.12-10.94-3.93-13.95-1.47-1.09-5.67-2.58-5.67 0.56 0 5.17 1.89 3.43-0.42-0.42"/>
			<path class="s0" d="m-196.95 190.78c-2.66 19.63 6.41 0.75 0.1 1.03-1.76 0.08-2.52 4.36-0.87 4.36 2.09 0 3.22-3.05 2.79-4.78-0.59-2.35-2.9 2.42-3 2.95-0.84 4.7 2.95 0.06 3.79-1.45 1.57-2.83-1.71-0.21-2.34 0.66-0.46 0.64-1.09 4.51 0.4 3.02 0.53-0.54 2.16-5.17 1.05-4.57-1.59 0.87-3.61 4.63-2.08 6.27 2.75 2.96 6.25-11.19 0.24-3.06-0.7 0.93-1.72 4.51 0.67 3.91 0.97-0.24 3.88-4.33 2.37-4.68-3.55-0.82-3.98 7.51-3.12-1.13"/>
			<path class="s0" d="m-263.94 212.69c-0.03 0.17-2.06 8.77-0.42 8.67 1.24-0.08 2.28-2.77 2.57-3.66 1.11-3.43-2.97-2.22-4.26-0.6-0.31 0.39-3.42 5.06-2.76 5.43 0.9 0.5 3.85-3.86 4.17-4.52 1.54-3.23-5.19 6.22-2.02 4.7 2.07-0.98 4.21-4.11 4.9-6.18 0.58-1.74-2.14 3.12-2.51 4.92-0.71 3.46 4.82-6.86 2.15-4.26-1.49 1.46-1.89 3.16-2.66 5.01-0.85 2.02 3.32-3.48 3.32-5.67 0-2.12-5.19 6.68-3.72 2.65 0.61-1.68 3.22-6.34 2.62-4.66-0.63 1.77-1.39 3.67-2.22 5.34"/>
			<path class="s0" d="m257.7-91.95c-0.32 0.48-8.49 13.72-4.86 9.06 1.06-1.37 3.66-5.62 0.63-2.08-5.51 6.42 7.03-6.53-2.23 1.4-1.73 1.49 1.36-1.96 1.74-2.48 0.9-1.25-4.15 4.2-5.01 5.1-2.16 2.25 4.49-4.3 6.69-6.5 1.8-1.8-3.24 2.7-3.93 3.74-1.85 2.78 12.05-6.83 4.19-1.26-0.73 0.51-6.17 5-4.1 2.24 1.42-1.89 6.59-6.77 4.92-5.1-1.73 1.72-6.64 6.91-1.83 3.79 1.09-0.7-9.22-9.93-10.02-11.19-0.52-0.82-1.27-2.36-0.04-0.65 2.25 3.13 4.83 5.99 7.32 8.94 2.17 2.56 4.29 5.6 5.69 1.9 1.06-2.82 2.33-5.45 3.79-8.08 0.16-0.28 1.94-4.62 1.6-4.54-0.79 0.17-2.87 6.68-3.37 7.49-1.58 2.52-3.18 5.7-5.3 7.82-0.34 0.34-0.09-3.55-0.09-4.38 0-3.11-0.23-6.11-0.44-9.2-0.07-0.9-0.82-8.88-0.82-5.45 0 6.8-0.95 13.13-0.1 20.06 0.05 0.41-0.23 5.62 0.1 5.62 0.53 0 1.68-4.16 1.68-4.87"/>
			<path class="s0" d="m282.99 10.44c-1.03 0.79-13.36 12.34-14.85 10.35-2.49-3.36-1.4-7.02 0.1-10.68 0.4-0.99 2.36-4.9 2.62-4.21 1.41 3.8 3.01 7.8 4.73 11.47 1.14 2.44 1.16 8.18 5.27 6.95 7.56-2.27 1.38-11.07 4.87-15.33 4.34-5.31-4.92 6.82-3.16-1.08"/>
			<path class="s0" d="m273.29 145.28c-5.15-0.18-11.84-1.25-15.52 3.34-1.66 2.08 1.21 3.3 2.98 3.12 3.16-0.34 7.5-4.73 10.84-2.23 4.02 3.03 2.33 6.05-0.8 9.18-3.9 3.89-8.46-3.13-10.46-6.06-3.48-5.09-5.28-14.63-0.71-19.38 5.51-5.73 2.78 4.08 2.09 7.79-1.47 7.8-0.36 14.98 0.82 22.73 1.51 9.93-0.17-0.59-0.61-4.59"/>
		</g>
	</g>
</svg>